<?xml version="1.0" standalone="no"?><!-- Generator: Gravit.io --><svg xmlns="http://www.w3.org/2000/svg" xmlns:xlink="http://www.w3.org/1999/xlink" style="isolation:isolate" viewBox="0 0 512 512" width="512" height="512"><defs><clipPath id="_clipPath_elJfJSPI7HWhA7CtoCCe4H9275VbQxD0"><rect width="512" height="512"/></clipPath></defs><g clip-path="url(#_clipPath_elJfJSPI7HWhA7CtoCCe4H9275VbQxD0)"><path d=" M 432.806 67 C 426.076 67 420.613 71.023 420.613 76 L 420.613 238.855 L 86.119 68.593 C 82.388 66.694 77.535 66.487 73.524 68.026 C 69.512 69.583 67 72.652 67 76 L 67 436 C 67 439.348 69.512 442.417 73.524 443.974 C 75.304 444.658 77.255 445 79.194 445 C 81.62 445 84.034 444.46 86.119 443.407 L 420.613 273.145 L 420.613 436 C 420.613 440.977 426.076 445 432.806 445 C 439.537 445 445 440.977 445 436 L 445 76 C 445 71.023 439.537 67 432.806 67 Z " fill="rgb(255,255,255)"/></g></svg>