<?xml version="1.0" standalone="no"?><!-- Generator: Gravit.io --><svg xmlns="http://www.w3.org/2000/svg" xmlns:xlink="http://www.w3.org/1999/xlink" style="isolation:isolate" viewBox="0 0 512 512" width="512" height="512"><defs><clipPath id="_clipPath_lN0ZoeBhqIHoKszBeC7oVS50rsd8sQVx"><rect width="512" height="512"/></clipPath></defs><g clip-path="url(#_clipPath_lN0ZoeBhqIHoKszBeC7oVS50rsd8sQVx)"><g><path d=" M 180.364 67 C 167.529 67 157.091 74.706 157.091 84.182 L 157.091 427.818 C 157.091 437.294 167.529 445 180.364 445 C 193.199 445 203.636 437.294 203.636 427.818 L 203.636 84.182 C 203.636 74.706 193.199 67 180.364 67 Z " fill="rgb(255,255,255)"/><path d=" M 331.636 67 C 318.801 67 308.364 74.706 308.364 84.182 L 308.364 427.818 C 308.364 437.294 318.801 445 331.636 445 C 344.471 445 354.909 437.294 354.909 427.818 L 354.909 84.182 C 354.909 74.706 344.471 67 331.636 67 Z " fill="rgb(255,255,255)"/></g></g></svg>