<?xml version="1.0" standalone="no"?><!-- Generator: Gravit.io --><svg xmlns="http://www.w3.org/2000/svg" xmlns:xlink="http://www.w3.org/1999/xlink" style="isolation:isolate" viewBox="0 0 512 512" width="512" height="512"><defs><clipPath id="_clipPath_vNtH7lhPMoIbtkMlaE9Ao2u6az92l5nk"><rect width="512" height="512"/></clipPath></defs><g clip-path="url(#_clipPath_vNtH7lhPMoIbtkMlaE9Ao2u6az92l5nk)"><path d=" M 438.476 68.026 C 434.465 66.487 429.624 66.694 425.881 68.593 L 91.387 238.855 L 91.387 76 C 91.387 71.023 85.924 67 79.194 67 C 72.463 67 67 71.023 67 76 L 67 436 C 67 440.977 72.463 445 79.194 445 C 85.924 445 91.387 440.977 91.387 436 L 91.387 273.145 L 425.881 443.416 C 427.966 444.46 430.38 445 432.806 445 C 434.745 445 436.696 444.658 438.476 443.974 C 442.488 442.417 445 439.348 445 436 L 445 76 C 445 72.652 442.488 69.583 438.476 68.026 Z " fill="rgb(255,255,255)"/></g></svg>