<?xml version="1.0" standalone="no"?>
<!DOCTYPE svg PUBLIC "-//W3C//DTD SVG 20010904//EN"
 "http://www.w3.org/TR/2001/REC-SVG-20010904/DTD/svg10.dtd">
<svg version="1.0" xmlns="http://www.w3.org/2000/svg"
 width="512.000000pt" height="512.000000pt" viewBox="0 0 512.000000 512.000000"
 preserveAspectRatio="xMidYMid meet">

<g transform="translate(0.000000,512.000000) scale(0.100000,-0.100000)"
fill="#000000" stroke="none">
<path d="M1275 3840 l-1280 -1280 538 -538 539 -539 -207 -222 c-203 -219
-206 -223 -201 -259 3 -20 20 -188 37 -372 17 -184 33 -337 35 -339 1 -2 215
128 475 289 l471 293 439 -439 439 -439 1282 1283 1283 1282 -527 527 -526
528 195 235 194 235 -5 45 c-3 25 -17 189 -32 365 -15 176 -30 323 -34 327 -3
5 -216 -123 -474 -282 -257 -160 -471 -290 -474 -290 -4 0 -203 196 -442 435
-239 239 -437 435 -440 435 -3 0 -581 -576 -1285 -1280z m1101 848 c4 -7 4
-10 -1 -6 -13 12 -33 -11 -28 -31 3 -10 1 -21 -4 -24 -5 -3 -9 2 -9 11 -1 9
-3 24 -5 32 -2 8 1 14 8 15 6 0 15 3 19 8 10 10 12 9 20 -5z m-53 -35 c4 -3 2
-12 -4 -19 -7 -9 -4 -14 13 -20 22 -7 21 -8 -11 -19 -19 -6 -37 -18 -39 -26
-3 -12 -2 -12 6 0 6 8 17 11 28 7 10 -4 21 -1 25 6 5 8 8 5 6 -9 0 -12 -4 -20
-8 -17 -4 2 -10 0 -14 -6 -3 -5 -2 -10 3 -10 5 0 9 -13 8 -29 -1 -24 -4 -27
-15 -18 -12 10 -13 9 -7 -2 5 -8 4 -16 -4 -21 -8 -5 0 -12 22 -20 18 -6 27
-14 20 -17 -6 -3 -10 -9 -6 -14 3 -5 -1 -11 -8 -14 -18 -7 -17 -57 1 -63 9 -3
11 0 6 8 -5 9 -4 11 3 6 8 -5 9 -13 2 -25 -5 -10 -6 -22 -2 -26 4 -5 1 -5 -6
-1 -7 4 -10 12 -7 17 3 5 -2 6 -11 2 -13 -5 -15 -3 -9 7 5 9 4 11 -3 6 -17
-10 -15 -26 3 -26 8 0 15 -7 15 -16 0 -14 -3 -14 -15 -4 -11 9 -19 10 -26 3
-8 -8 -6 -11 7 -10 12 1 18 -4 16 -13 -3 -11 1 -10 17 4 11 10 26 16 33 13 8
-3 6 -6 -5 -6 -10 -1 -15 -5 -12 -11 10 -17 15 -51 6 -45 -15 8 -34 -24 -36
-60 -2 -29 0 -33 14 -26 21 11 41 3 41 -17 0 -13 -3 -13 -16 4 -12 14 -14 15
-11 3 4 -13 0 -16 -16 -12 -18 3 -17 1 6 -12 15 -8 27 -18 27 -20 0 -3 -12 0
-27 5 l-28 10 25 -19 25 -20 -25 5 -25 5 23 -13 c19 -9 25 -9 33 3 6 10 8 7 5
-11 -3 -14 -5 -27 -6 -30 -2 -3 -2 -8 -1 -12 2 -12 -24 -9 -37 4 -11 11 -13 9
-11 -8 0 -4 -5 -11 -13 -16 -8 -5 -3 -7 15 -4 27 5 28 4 21 -32 -4 -20 -11
-39 -17 -41 -5 -2 -4 -7 3 -11 9 -6 9 -13 0 -31 -11 -23 -11 -23 5 -4 l17 20
-4 -20 c-2 -13 2 -19 11 -17 11 2 12 0 2 -11 -9 -12 -8 -16 5 -21 11 -4 13
-10 7 -19 -4 -6 -8 -25 -7 -42 1 -16 -3 -38 -8 -47 -8 -18 1 -24 27 -18 5 1 6
-2 2 -7 -5 -4 -15 -8 -24 -8 -9 0 -21 -8 -26 -17 -9 -13 -6 -21 14 -38 23 -20
23 -21 2 -10 -19 9 -23 8 -23 -5 0 -10 -5 -13 -12 -9 -7 4 -8 3 -4 -4 4 -7 18
-10 34 -6 15 4 24 4 20 0 -3 -4 -8 -6 -11 -4 -3 2 -13 -7 -23 -18 -11 -12
-149 -103 -309 -202 -590 -366 -1130 -702 -1142 -709 -9 -6 -5 -89 19 -353 16
-190 32 -347 34 -349 2 -3 140 7 306 22 166 15 303 25 306 23 2 -2 -37 -48
-87 -103 l-90 -98 -160 -41 -159 -41 -424 424 -423 424 1053 1050 c579 577
1056 1049 1061 1049 4 0 11 -3 14 -7z m1987 -244 c11 -118 20 -231 20 -252 0
-43 55 28 -627 -801 -167 -201 -303 -370 -303 -374 0 -4 80 -38 178 -77 l177
-70 22 -235 c12 -129 22 -243 22 -252 1 -17 -21 -31 -1439 -911 -426 -264
-944 -585 -1150 -713 -206 -128 -375 -232 -377 -230 -4 4 -43 427 -43 470 0
36 11 50 177 230 97 105 184 198 192 207 9 8 120 127 246 264 127 137 278 301
337 365 60 63 102 116 95 118 -7 1 -185 -13 -395 -33 -210 -19 -387 -35 -394
-35 -11 0 -19 61 -36 251 -12 139 -21 253 -20 254 2 2 566 352 1253 778 688
426 1428 885 1645 1020 217 135 396 245 397 243 1 -1 12 -99 23 -217z m-1930
117 c0 -2 -8 -10 -17 -17 -16 -13 -17 -12 -4 4 13 16 21 21 21 13z m-23 -141
c0 -8 -4 -12 -9 -9 -5 3 -6 10 -3 15 9 13 12 11 12 -6z m4 -192 c13 -16 12
-17 -3 -4 -22 17 -23 4 -2 -20 15 -16 14 -17 -5 -12 -11 3 -18 9 -15 14 3 5 1
9 -5 9 -6 0 -8 7 -5 15 8 20 18 19 35 -2z m1394 -2203 c175 -30 472 -94 483
-105 3 -3 -19 -30 -49 -61 -40 -41 -59 -53 -74 -49 -105 30 -497 98 -709 123
l-60 7 95 57 c52 32 103 58 114 58 11 0 101 -14 200 -30z"/>
<path d="M2307 4419 c-4 -16 -3 -18 9 -8 7 6 11 15 8 20 -8 13 -11 11 -17 -12z"/>
<path d="M2316 4239 c-22 -22 -9 -26 19 -6 10 8 14 16 9 19 -5 3 -18 -3 -28
-13z"/>
<path d="M2314 4034 c23 -17 33 -18 41 -4 4 6 3 10 -2 9 -4 -1 -10 0 -13 1 -3
1 -14 3 -25 5 -20 4 -20 4 -1 -11z"/>
<path d="M2276 4025 c4 -8 8 -15 10 -15 2 0 4 7 4 15 0 8 -4 15 -10 15 -5 0
-7 -7 -4 -15z"/>
<path d="M2310 3825 c0 -8 4 -15 8 -15 5 0 9 7 9 15 0 8 -4 15 -9 15 -4 0 -8
-7 -8 -15z"/>
<path d="M2324 3785 c-15 -16 -18 -25 -9 -28 15 -6 42 10 32 19 -4 4 -2 13 4
21 20 24 -5 13 -27 -12z"/>
<path d="M2329 3743 c-1 -4 -1 -12 0 -16 1 -5 -3 -6 -8 -3 -5 4 -12 2 -15 -3
-3 -5 3 -11 13 -14 20 -5 37 28 20 39 -5 3 -10 2 -10 -3z"/>
<path d="M2295 3691 c-3 -5 0 -13 6 -17 8 -5 9 -3 4 6 -6 9 -1 10 16 5 19 -5
21 -4 9 4 -19 13 -27 14 -35 2z"/>
</g>
</svg>
