<?xml version="1.0" encoding="UTF-8" standalone="no"?><!DOCTYPE svg PUBLIC "-//W3C//DTD SVG 1.1//EN" "http://www.w3.org/Graphics/SVG/1.1/DTD/svg11.dtd"><svg width="100%" height="100%" viewBox="0 0 256 256" version="1.1" xmlns="http://www.w3.org/2000/svg" xmlns:xlink="http://www.w3.org/1999/xlink" xml:space="preserve" xmlns:serif="http://www.serif.com/" style="fill-rule:evenodd;clip-rule:evenodd;stroke-linejoin:round;stroke-miterlimit:1.41421;"><path d="M128,0l-128,128l128,128l128,-128l-128,-128Z" style="fill:url(#_Linear1);"/><clipPath id="_clip2"><path d="M128,0l-128,128l128,128l128,-128l-128,-128Z"/></clipPath><g clip-path="url(#_clip2)"><ellipse cx="134.915" cy="262.261" rx="190.197" ry="110.095"/><path d="M135.53,152.167l0.614,0.002l0.614,0.003l0.613,0.004l0.613,0.005l0.613,0.006l0.612,0.007l0.612,0.009l0.611,0.009l0.61,0.011l0.611,0.011l0.609,0.013l0.609,0.014l0.609,0.015l0.608,0.017l0.608,0.017l0.607,0.018l0.607,0.02l0.606,0.02l0.606,0.022l0.605,0.023l0.605,0.024l0.604,0.025l0.604,0.026l0.603,0.027l0.602,0.028l0.602,0.03l0.602,0.03l0.601,0.031l0.6,0.033l0.6,0.034l0.6,0.034l0.599,0.036l0.598,0.037l0.598,0.038l0.597,0.039l0.596,0.04l0.596,0.041l0.596,0.042l0.595,0.044l0.594,0.044l0.594,0.046l0.593,0.046l0.593,0.047l0.592,0.049l0.591,0.05l0.591,0.05l0.591,0.052l0.589,0.053l0.589,0.054l0.589,0.055l0.588,0.055l0.587,0.057l0.587,0.058l0.586,0.059l0.585,0.06l0.585,0.062l0.585,0.062l0.583,0.063l0.583,0.064l0.583,0.065l0.581,0.066l0.581,0.068l0.581,0.068l0.58,0.069l0.579,0.071l0.578,0.071l0.578,0.072l0.578,0.074l0.576,0.074l0.576,0.075l0.575,0.077l0.575,0.077l0.574,0.079l0.573,0.079l0.573,0.08l0.572,0.082l0.571,0.082l0.571,0.084l0.569,0.084l0.57,0.086l0.568,0.086l0.568,0.087l0.567,0.089l0.567,0.089l0.565,0.09l0.565,0.092l0.565,0.092l0.563,0.093l0.563,0.095l0.562,0.095l0.562,0.096l0.561,0.097l0.56,0.098l0.559,0.1l0.558,0.1l0.558,0.101l0.557,0.102l0.557,0.103l0.555,0.104l0.555,0.105l0.554,0.106l0.554,0.106l0.552,0.108l0.552,0.109l0.551,0.11l0.551,0.11l0.549,0.112l0.549,0.112l0.548,0.114l0.547,0.114l0.547,0.116l0.545,0.116l0.545,0.117l0.544,0.118l0.544,0.119l0.542,0.121l0.542,0.12l0.541,0.122l0.54,0.123l0.54,0.124l0.538,0.125l0.538,0.125l0.537,0.127l0.536,0.127l0.535,0.129l0.535,0.129l0.533,0.13l0.533,0.131l0.532,0.132l0.531,0.133l0.531,0.134l0.529,0.135l0.529,0.135l0.528,0.137l0.527,0.137l0.526,0.139l0.525,0.139l0.524,0.14l0.524,0.141l0.523,0.142l0.521,0.143l0.521,0.143l0.52,0.145l0.52,0.145l0.518,0.147l0.517,0.147l0.517,0.148l0.516,0.149l0.514,0.15l0.514,0.151l0.513,0.151l0.512,0.153l0.512,0.153l0.51,0.154l0.509,0.156l0.509,0.156l0.507,0.156l0.507,0.158l0.506,0.159l0.505,0.159l0.504,0.16l0.502,0.161l0.503,0.162l0.501,0.163l0.5,0.164l0.499,0.164l0.498,0.166l0.498,0.166l0.496,0.167l0.496,0.168l0.494,0.169l0.494,0.169l0.492,0.17l0.492,0.172l0.491,0.172l0.489,0.173l0.489,0.173l0.488,0.175l0.487,0.175l0.485,0.177l0.485,0.177l0.484,0.177l0.483,0.179l0.482,0.18l0.481,0.18l0.479,0.181l0.479,0.182l0.478,0.183l0.477,0.183l0.476,0.185l0.475,0.185l0.474,0.186l0.472,0.186l0.472,0.188l0.471,0.188l0.47,0.19l0.468,0.189l0.468,0.191l0.467,0.192l0.465,0.192l0.465,0.193l0.464,0.194l0.462,0.195l0.461,0.195l0.461,0.197l0.459,0.197l0.458,0.197l0.458,0.199l0.456,0.199l0.455,0.201l0.454,0.2l0.453,0.202l0.452,0.203l0.45,0.203l0.45,0.204l0.449,0.205l0.447,0.205l0.447,0.206l0.445,0.207l0.444,0.208l0.444,0.209l0.442,0.209l0.441,0.21l0.439,0.211l0.439,0.211l0.438,0.213l0.436,0.213l0.436,0.213l0.434,0.215l0.433,0.215l0.432,0.216l0.431,0.217l0.43,0.217l0.428,0.218l0.428,0.219l0.426,0.22l0.425,0.22l0.424,0.222l0.423,0.221l0.422,0.223l0.42,0.223l0.42,0.224l0.418,0.225l0.417,0.225l0.416,0.226l0.415,0.227l0.413,0.228l0.413,0.228l0.411,0.229l0.41,0.23l0.409,0.23l0.407,0.231l0.407,0.232l0.405,0.233l0.404,0.233l0.403,0.234l0.401,0.234l0.401,0.236l0.399,0.235l0.398,0.237l0.397,0.237l0.396,0.238l0.394,0.239l0.393,0.24l0.392,0.24l0.391,0.24l0.389,0.242l0.388,0.242l0.387,0.243l0.386,0.243l0.384,0.244l0.384,0.245l0.382,0.245l0.38,0.247l0.38,0.246l0.378,0.248l0.377,0.248l0.376,0.249l0.374,0.249l0.373,0.25l0.372,0.251l0.371,0.251l0.369,0.252l0.368,0.253l0.367,0.253l0.365,0.254l0.364,0.255l0.363,0.255l0.362,0.256l0.36,0.256l0.359,0.257l0.358,0.258l0.356,0.259l0.355,0.259l0.354,0.259l0.352,0.261l0.351,0.261l0.35,0.261l0.348,0.262l0.347,0.263l0.346,0.264l0.345,0.264l0.343,0.264l0.341,0.266l0.341,0.265l0.339,0.267l0.338,0.267l0.336,0.268l0.335,0.268l0.334,0.269l0.332,0.269l0.331,0.271l0.329,0.27l0.328,0.272l0.327,0.272l0.326,0.272l0.324,0.273l0.322,0.274l0.322,0.274l0.319,0.275l0.319,0.275l0.317,0.276l0.316,0.277l0.314,0.277l0.313,0.278l0.311,0.278l0.31,0.279l0.309,0.28l0.307,0.28l0.306,0.28l0.305,0.282l0.303,0.281l0.301,0.283l0.3,0.283l0.299,0.283l0.297,0.284l0.296,0.285l0.294,0.285l0.293,0.286l0.292,0.286l0.29,0.287l0.288,0.287l0.288,0.288l0.285,0.288l0.284,0.289l0.283,0.29l0.281,0.29l0.28,0.291l0.279,0.291l0.276,0.291l0.276,0.293l0.274,0.292l0.272,0.294l0.271,0.293l0.27,0.295l0.267,0.295l0.267,0.295l0.265,0.296l0.263,0.296l0.262,0.297l0.261,0.298l0.259,0.298l0.257,0.298l0.256,0.299l0.254,0.3l0.253,0.3l0.251,0.3l0.25,0.301l0.248,0.302l0.247,0.302l0.245,0.303l0.244,0.303l0.242,0.303l0.24,0.304l0.239,0.305l0.238,0.305l0.236,0.305l0.234,0.306l0.233,0.307l0.231,0.307l0.23,0.307l0.228,0.308l0.226,0.309l0.225,0.308l0.224,0.31l0.221,0.31l0.22,0.31l0.219,0.311l0.217,0.311l0.215,0.312l0.214,0.312l0.212,0.313l0.211,0.313l0.209,0.313l0.207,0.314l0.206,0.315l0.204,0.315l0.203,0.315l0.201,0.316l0.199,0.317l0.198,0.316l0.196,0.318l0.194,0.317l0.193,0.318l0.191,0.319l0.19,0.319l0.188,0.319l0.186,0.32l0.184,0.321l0.183,0.32l0.181,0.321l0.18,0.322l0.178,0.322l0.176,0.323l0.175,0.322l0.173,0.324l0.171,0.324l0.17,0.324l0.168,0.324l0.166,0.325l0.164,0.326l0.163,0.326l0.161,0.326l0.16,0.326l0.158,0.328l0.156,0.327l0.154,0.328l0.153,0.328l0.151,0.329l0.149,0.329l0.148,0.329l0.145,0.33l0.144,0.331l0.143,0.33l0.141,0.331l0.138,0.332l0.138,0.332l0.135,0.332l0.134,0.332l0.132,0.333l0.13,0.334l0.129,0.334l0.126,0.334l0.125,0.334l0.124,0.335l0.121,0.335l0.12,0.336l0.118,0.336l0.116,0.336l0.114,0.337l0.113,0.337l0.111,0.338l0.109,0.337l0.107,0.339l0.106,0.338l0.104,0.339l0.102,0.339l0.1,0.34l0.098,0.34l0.097,0.34l0.094,0.341l0.093,0.341l0.092,0.341l0.089,0.342l0.087,0.342l0.086,0.342l0.084,0.343l0.082,0.343l0.08,0.343l0.079,0.344l0.076,0.344l0.075,0.345l0.073,0.344l0.071,0.345l0.07,0.346l0.067,0.345l0.065,0.346l0.064,0.347l0.062,0.346l0.06,0.347l0.058,0.348l0.056,0.347l0.055,0.348l0.052,0.348l0.051,0.349l0.049,0.349l0.047,0.349l0.045,0.349l0.043,0.35l0.041,0.35l0.04,0.35l0.037,0.351l0.036,0.351l0.033,0.351l0.032,0.351l0.03,0.352l0.028,0.352l0.026,0.352l0.024,0.353l0.022,0.353l0.021,0.353l0.018,0.354l0.017,0.353l0.014,0.354l0.013,0.355l0.01,0.354l0.009,0.355l0.007,0.355l0.005,0.356l0.003,0.355l0.001,0.356l-0.001,0.356l-0.003,0.356l-0.005,0.355l-0.007,0.355l-0.009,0.355l-0.01,0.355l-0.013,0.354l-0.014,0.354l-0.017,0.354l-0.018,0.353l-0.021,0.353l-0.022,0.353l-0.024,0.353l-0.026,0.352l-0.028,0.352l-0.03,0.352l-0.032,0.351l-0.033,0.352l-0.036,0.351l-0.037,0.35l-0.04,0.351l-0.041,0.35l-0.043,0.349l-0.045,0.35l-0.047,0.349l-0.049,0.349l-0.051,0.348l-0.052,0.348l-0.055,0.348l-0.056,0.348l-0.058,0.347l-0.06,0.347l-0.062,0.347l-0.064,0.346l-0.065,0.346l-0.067,0.346l-0.07,0.345l-0.071,0.345l-0.073,0.345l-0.075,0.344l-0.076,0.344l-0.079,0.344l-0.08,0.343l-0.082,0.343l-0.084,0.343l-0.086,0.342l-0.087,0.342l-0.089,0.342l-0.092,0.341l-0.093,0.341l-0.094,0.341l-0.097,0.34l-0.098,0.34l-0.1,0.34l-0.102,0.339l-0.104,0.339l-0.106,0.339l-0.107,0.338l-0.109,0.338l-0.111,0.337l-0.113,0.337l-0.114,0.337l-0.116,0.336l-0.118,0.336l-0.12,0.336l-0.121,0.335l-0.124,0.335l-0.125,0.335l-0.126,0.334l-0.129,0.334l-0.13,0.333l-0.132,0.333l-0.134,0.333l-0.135,0.332l-0.138,0.332l-0.138,0.331l-0.141,0.331l-0.143,0.331l-0.144,0.33l-0.145,0.33l-0.148,0.329l-0.149,0.329l-0.151,0.329l-0.153,0.328l-0.154,0.328l-0.156,0.328l-0.158,0.327l-0.16,0.326l-0.161,0.327l-0.163,0.326l-0.164,0.325l-0.166,0.325l-0.168,0.325l-0.17,0.324l-0.171,0.323l-0.173,0.324l-0.175,0.323l-0.176,0.322l-0.178,0.322l-0.18,0.322l-0.181,0.321l-0.183,0.321l-0.184,0.32l-0.186,0.32l-0.188,0.319l-0.19,0.319l-0.191,0.319l-0.193,0.318l-0.194,0.318l-0.196,0.317l-0.198,0.317l-0.199,0.316l-0.201,0.316l-0.203,0.315l-0.204,0.315l-0.206,0.315l-0.207,0.314l-0.209,0.313l-0.211,0.314l-0.212,0.312l-0.214,0.312l-0.215,0.312l-0.217,0.311l-0.219,0.311l-0.22,0.311l-0.221,0.309l-0.224,0.31l-0.225,0.309l-0.226,0.308l-0.228,0.308l-0.23,0.308l-0.231,0.307l-0.233,0.306l-0.234,0.306l-0.236,0.306l-0.238,0.305l-0.239,0.304l-0.24,0.304l-0.242,0.304l-0.244,0.303l-0.245,0.302l-0.247,0.302l-0.248,0.302l-0.25,0.301l-0.251,0.3l-0.253,0.301l-0.254,0.299l-0.256,0.299l-0.257,0.299l-0.259,0.298l-0.261,0.297l-0.262,0.297l-0.263,0.296l-0.265,0.296l-0.267,0.296l-0.267,0.295l-0.27,0.294l-0.271,0.294l-0.272,0.293l-0.274,0.293l-0.276,0.292l-0.276,0.292l-0.279,0.291l-0.28,0.29l-0.281,0.29l-0.283,0.29l-0.284,0.289l-0.285,0.288l-0.288,0.288l-0.288,0.288l-0.29,0.286l-0.292,0.287l-0.293,0.285l-0.294,0.286l-0.296,0.284l-0.297,0.284l-0.299,0.284l-0.3,0.282l-0.301,0.283l-0.303,0.282l-0.305,0.281l-0.306,0.28l-0.307,0.28l-0.309,0.28l-0.31,0.279l-0.311,0.278l-0.313,0.278l-0.314,0.277l-0.316,0.277l-0.317,0.276l-0.319,0.275l-0.319,0.275l-0.322,0.274l-0.322,0.274l-0.324,0.273l-0.326,0.273l-0.327,0.272l-0.328,0.271l-0.329,0.271l-0.331,0.27l-0.332,0.269l-0.334,0.269l-0.335,0.269l-0.336,0.267l-0.338,0.267l-0.339,0.267l-0.341,0.266l-0.341,0.265l-0.343,0.265l-0.345,0.264l-0.346,0.263l-0.347,0.263l-0.348,0.262l-0.35,0.262l-0.351,0.261l-0.352,0.26l-0.354,0.26l-0.355,0.259l-0.356,0.258l-0.358,0.258l-0.359,0.257l-0.36,0.256l-0.362,0.256l-0.363,0.256l-0.364,0.254l-0.365,0.254l-0.367,0.253l-0.368,0.253l-0.369,0.252l-0.371,0.252l-0.372,0.25l-0.373,0.25l-0.374,0.25l-0.376,0.248l-0.377,0.249l-0.378,0.247l-0.38,0.247l-0.38,0.246l-0.382,0.245l-0.384,0.245l-0.384,0.244l-0.386,0.244l-0.387,0.242l-0.388,0.243l-0.389,0.241l-0.391,0.241l-0.392,0.24l-0.393,0.239l-0.394,0.239l-0.396,0.238l-0.397,0.237l-0.398,0.237l-0.399,0.236l-0.401,0.235l-0.401,0.235l-0.403,0.234l-0.404,0.233l-0.405,0.232l-0.407,0.232l-0.407,0.231l-0.409,0.23l-0.41,0.23l-0.411,0.229l-0.413,0.228l-0.413,0.228l-0.415,0.227l-0.416,0.226l-0.417,0.225l-0.418,0.225l-0.42,0.224l-0.42,0.223l-0.422,0.223l-0.423,0.222l-0.424,0.221l-0.425,0.22l-0.426,0.22l-0.428,0.219l-0.428,0.218l-0.43,0.217l-0.431,0.217l-0.432,0.216l-0.433,0.215l-0.434,0.215l-0.436,0.214l-0.436,0.213l-0.438,0.212l-0.439,0.212l-0.439,0.21l-0.441,0.21l-0.442,0.21l-0.444,0.208l-0.444,0.208l-0.445,0.207l-0.447,0.206l-0.447,0.206l-0.449,0.205l-0.45,0.203l-0.45,0.204l-0.452,0.202l-0.453,0.202l-0.454,0.201l-0.455,0.2l-0.456,0.199l-0.458,0.199l-0.458,0.198l-0.459,0.197l-0.461,0.196l-0.461,0.195l-0.462,0.195l-0.464,0.194l-0.465,0.193l-0.465,0.193l-0.467,0.191l-0.468,0.191l-0.468,0.19l-0.47,0.189l-0.471,0.188l-0.472,0.188l-0.472,0.187l-0.474,0.186l-0.475,0.185l-0.476,0.184l-0.477,0.184l-0.478,0.182l-0.479,0.182l-0.479,0.181l-0.481,0.181l-0.482,0.179l-0.483,0.179l-0.484,0.178l-0.485,0.177l-0.485,0.176l-0.487,0.175l-0.488,0.175l-0.489,0.174l-0.489,0.172l-0.491,0.173l-0.492,0.171l-0.492,0.17l-0.494,0.17l-0.494,0.168l-0.496,0.168l-0.496,0.167l-0.498,0.167l-0.498,0.165l-0.499,0.164l-0.5,0.164l-0.501,0.163l-0.503,0.162l-0.502,0.161l-0.504,0.16l-0.505,0.16l-0.506,0.158l-0.507,0.158l-0.507,0.157l-0.509,0.156l-0.509,0.155l-0.51,0.154l-0.512,0.153l-0.512,0.153l-0.513,0.151l-0.514,0.151l-0.514,0.15l-0.516,0.149l-0.517,0.148l-0.517,0.147l-0.518,0.147l-0.52,0.145l-0.52,0.145l-0.521,0.144l-0.521,0.142l-0.523,0.142l-0.524,0.141l-0.524,0.14l-0.525,0.14l-0.526,0.138l-0.527,0.137l-0.528,0.137l-0.529,0.136l-0.529,0.134l-0.531,0.134l-0.531,0.133l-0.532,0.132l-0.533,0.131l-0.533,0.13l-0.535,0.13l-0.535,0.128l-0.536,0.127l-0.537,0.127l-0.538,0.126l-0.538,0.124l-0.54,0.124l-0.54,0.123l-0.541,0.122l-0.542,0.121l-0.542,0.12l-0.544,0.119l-0.544,0.118l-0.545,0.117l-0.545,0.117l-0.547,0.115l-0.547,0.114l-0.548,0.114l-0.549,0.112l-0.549,0.112l-0.551,0.111l-0.551,0.109l-0.552,0.109l-0.552,0.108l-0.554,0.107l-0.554,0.106l-0.555,0.105l-0.555,0.103l-0.557,0.103l-0.557,0.103l-0.558,0.101l-0.558,0.1l-0.559,0.099l-0.56,0.098l-0.561,0.097l-0.562,0.096l-0.562,0.096l-0.563,0.094l-0.563,0.093l-0.565,0.093l-0.565,0.091l-0.565,0.09l-0.567,0.09l-0.567,0.088l-0.568,0.087l-0.568,0.087l-0.57,0.085l-0.569,0.085l-0.571,0.083l-0.571,0.082l-0.572,0.082l-0.573,0.08l-0.573,0.08l-0.574,0.078l-0.575,0.077l-0.575,0.077l-0.576,0.075l-0.576,0.075l-0.578,0.073l-0.578,0.072l-0.578,0.072l-0.579,0.07l-0.58,0.069l-0.581,0.069l-0.581,0.067l-0.581,0.066l-0.583,0.065l-0.583,0.064l-0.583,0.064l-0.585,0.062l-0.585,0.061l-0.585,0.06l-0.586,0.059l-0.587,0.058l-0.587,0.057l-0.588,0.056l-0.589,0.055l-0.589,0.053l-0.589,0.053l-0.591,0.052l-0.591,0.051l-0.591,0.049l-0.592,0.049l-0.593,0.047l-0.593,0.047l-0.594,0.045l-0.594,0.045l-0.595,0.043l-0.596,0.042l-0.596,0.041l-0.596,0.04l-0.597,0.039l-0.598,0.038l-0.598,0.037l-0.599,0.036l-0.6,0.035l-0.6,0.033l-0.6,0.033l-0.601,0.031l-0.602,0.031l-0.602,0.029l-0.602,0.028l-0.603,0.027l-0.604,0.027l-0.604,0.024l-0.605,0.024l-0.605,0.023l-0.606,0.022l-0.606,0.02l-0.607,0.02l-0.607,0.018l-0.608,0.018l-0.608,0.016l-0.609,0.015l-0.609,0.014l-0.609,0.013l-0.611,0.012l-0.61,0.01l-0.611,0.01l-0.612,0.008l-0.612,0.007l-0.613,0.007l-0.613,0.005l-0.613,0.004l-0.614,0.002l-0.614,0.002l-0.615,0.001l-0.615,-0.001l-0.615,-0.002l-0.613,-0.002l-0.614,-0.004l-0.613,-0.005l-0.612,-0.007l-0.613,-0.007l-0.611,-0.008l-0.611,-0.01l-0.611,-0.01l-0.61,-0.012l-0.61,-0.013l-0.609,-0.014l-0.609,-0.015l-0.608,-0.016l-0.608,-0.018l-0.607,-0.018l-0.607,-0.02l-0.606,-0.02l-0.605,-0.022l-0.606,-0.023l-0.604,-0.024l-0.604,-0.024l-0.604,-0.027l-0.603,-0.027l-0.603,-0.028l-0.602,-0.029l-0.601,-0.031l-0.601,-0.031l-0.601,-0.033l-0.6,-0.033l-0.599,-0.035l-0.599,-0.036l-0.598,-0.037l-0.598,-0.038l-0.597,-0.039l-0.597,-0.04l-0.596,-0.041l-0.595,-0.042l-0.595,-0.043l-0.595,-0.045l-0.594,-0.045l-0.593,-0.047l-0.592,-0.047l-0.592,-0.049l-0.592,-0.049l-0.591,-0.051l-0.59,-0.052l-0.59,-0.053l-0.589,-0.053l-0.588,-0.055l-0.588,-0.056l-0.588,-0.057l-0.586,-0.058l-0.587,-0.059l-0.585,-0.06l-0.585,-0.061l-0.584,-0.062l-0.584,-0.064l-0.583,-0.064l-0.582,-0.065l-0.582,-0.066l-0.581,-0.067l-0.58,-0.069l-0.58,-0.069l-0.579,-0.07l-0.579,-0.072l-0.578,-0.072l-0.577,-0.073l-0.577,-0.075l-0.576,-0.075l-0.575,-0.077l-0.575,-0.077l-0.573,-0.078l-0.574,-0.08l-0.572,-0.08l-0.572,-0.082l-0.572,-0.082l-0.57,-0.083l-0.57,-0.085l-0.569,-0.085l-0.569,-0.087l-0.568,-0.087l-0.567,-0.088l-0.566,-0.09l-0.566,-0.09l-0.565,-0.091l-0.564,-0.093l-0.564,-0.093l-0.563,-0.094l-0.562,-0.096l-0.561,-0.096l-0.561,-0.097l-0.56,-0.098l-0.559,-0.099l-0.559,-0.1l-0.558,-0.101l-0.557,-0.103l-0.556,-0.103l-0.556,-0.103l-0.555,-0.105l-0.554,-0.106l-0.553,-0.107l-0.553,-0.108l-0.552,-0.109l-0.551,-0.109l-0.55,-0.111l-0.55,-0.112l-0.548,-0.112l-0.548,-0.114l-0.548,-0.114l-0.546,-0.115l-0.546,-0.117l-0.545,-0.117l-0.544,-0.118l-0.543,-0.119l-0.543,-0.12l-0.542,-0.121l-0.541,-0.122l-0.54,-0.123l-0.539,-0.124l-0.539,-0.124l-0.537,-0.126l-0.537,-0.127l-0.536,-0.127l-0.536,-0.128l-0.534,-0.13l-0.534,-0.13l-0.533,-0.131l-0.532,-0.132l-0.531,-0.133l-0.53,-0.134l-0.53,-0.134l-0.528,-0.136l-0.528,-0.137l-0.527,-0.137l-0.526,-0.138l-0.525,-0.14l-0.525,-0.14l-0.523,-0.141l-0.523,-0.142l-0.522,-0.142l-0.521,-0.144l-0.52,-0.145l-0.519,-0.145l-0.518,-0.147l-0.518,-0.147l-0.516,-0.148l-0.516,-0.149l-0.515,-0.15l-0.514,-0.151l-0.513,-0.151l-0.512,-0.153l-0.511,-0.153l-0.51,-0.154l-0.51,-0.155l-0.508,-0.156l-0.508,-0.157l-0.507,-0.158l-0.505,-0.158l-0.505,-0.16l-0.504,-0.16l-0.503,-0.161l-0.502,-0.162l-0.501,-0.163l-0.5,-0.164l-0.5,-0.164l-0.498,-0.165l-0.497,-0.167l-0.497,-0.167l-0.495,-0.168l-0.495,-0.168l-0.493,-0.17l-0.493,-0.17l-0.491,-0.171l-0.491,-0.173l-0.49,-0.172l-0.489,-0.174l-0.487,-0.175l-0.487,-0.175l-0.486,-0.176l-0.485,-0.177l-0.484,-0.178l-0.482,-0.179l-0.482,-0.179l-0.481,-0.181l-0.48,-0.181l-0.479,-0.182l-0.478,-0.182l-0.477,-0.184l-0.475,-0.184l-0.475,-0.185l-0.474,-0.186l-0.473,-0.187l-0.472,-0.188l-0.471,-0.188l-0.469,-0.189l-0.469,-0.19l-0.468,-0.191l-0.466,-0.191l-0.466,-0.193l-0.465,-0.193l-0.463,-0.194l-0.463,-0.195l-0.461,-0.195l-0.46,-0.196l-0.46,-0.197l-0.458,-0.198l-0.457,-0.199l-0.456,-0.199l-0.455,-0.2l-0.454,-0.201l-0.453,-0.202l-0.452,-0.202l-0.451,-0.204l-0.45,-0.203l-0.448,-0.205l-0.448,-0.206l-0.446,-0.206l-0.446,-0.207l-0.444,-0.208l-0.443,-0.208l-0.442,-0.21l-0.441,-0.21l-0.44,-0.21l-0.439,-0.212l-0.437,-0.212l-0.437,-0.213l-0.435,-0.214l-0.434,-0.215l-0.433,-0.215l-0.432,-0.216l-0.431,-0.217l-0.43,-0.217l-0.429,-0.218l-0.427,-0.219l-0.426,-0.22l-0.426,-0.22l-0.424,-0.221l-0.423,-0.222l-0.421,-0.223l-0.421,-0.223l-0.419,-0.224l-0.418,-0.225l-0.418,-0.225l-0.415,-0.226l-0.415,-0.227l-0.414,-0.228l-0.412,-0.228l-0.411,-0.229l-0.41,-0.23l-0.409,-0.23l-0.408,-0.231l-0.406,-0.232l-0.405,-0.232l-0.405,-0.233l-0.402,-0.234l-0.402,-0.235l-0.4,-0.235l-0.4,-0.236l-0.398,-0.237l-0.396,-0.237l-0.396,-0.238l-0.394,-0.239l-0.394,-0.239l-0.391,-0.24l-0.391,-0.241l-0.39,-0.241l-0.388,-0.243l-0.387,-0.242l-0.385,-0.244l-0.385,-0.244l-0.383,-0.245l-0.382,-0.245l-0.381,-0.246l-0.379,-0.247l-0.379,-0.247l-0.376,-0.249l-0.376,-0.248l-0.375,-0.25l-0.373,-0.25l-0.372,-0.25l-0.37,-0.252l-0.369,-0.252l-0.369,-0.253l-0.366,-0.253l-0.366,-0.254l-0.364,-0.254l-0.363,-0.256l-0.361,-0.256l-0.361,-0.256l-0.358,-0.257l-0.358,-0.258l-0.356,-0.258l-0.356,-0.259l-0.353,-0.26l-0.353,-0.26l-0.351,-0.261l-0.349,-0.262l-0.349,-0.262l-0.347,-0.263l-0.346,-0.263l-0.344,-0.264l-0.343,-0.265l-0.342,-0.265l-0.34,-0.266l-0.339,-0.267l-0.338,-0.267l-0.336,-0.267l-0.335,-0.269l-0.334,-0.269l-0.332,-0.269l-0.331,-0.27l-0.33,-0.271l-0.328,-0.271l-0.327,-0.272l-0.325,-0.273l-0.324,-0.273l-0.323,-0.274l-0.321,-0.274l-0.32,-0.275l-0.318,-0.275l-0.318,-0.276l-0.315,-0.277l-0.315,-0.277l-0.312,-0.278l-0.312,-0.278l-0.31,-0.279l-0.309,-0.28l-0.307,-0.28l-0.306,-0.28l-0.304,-0.281l-0.303,-0.282l-0.302,-0.283l-0.3,-0.282l-0.298,-0.284l-0.298,-0.284l-0.296,-0.284l-0.294,-0.286l-0.293,-0.285l-0.291,-0.287l-0.29,-0.286l-0.289,-0.288l-0.287,-0.288l-0.286,-0.288l-0.284,-0.289l-0.283,-0.29l-0.281,-0.29l-0.28,-0.29l-0.278,-0.291l-0.277,-0.292l-0.275,-0.292l-0.274,-0.293l-0.273,-0.293l-0.271,-0.294l-0.269,-0.294l-0.268,-0.295l-0.266,-0.296l-0.265,-0.296l-0.264,-0.296l-0.262,-0.297l-0.26,-0.297l-0.259,-0.298l-0.257,-0.299l-0.256,-0.299l-0.255,-0.299l-0.253,-0.301l-0.251,-0.3l-0.25,-0.301l-0.248,-0.302l-0.247,-0.302l-0.245,-0.302l-0.243,-0.303l-0.242,-0.304l-0.241,-0.304l-0.239,-0.304l-0.237,-0.305l-0.236,-0.306l-0.235,-0.306l-0.232,-0.306l-0.232,-0.307l-0.229,-0.308l-0.228,-0.308l-0.227,-0.308l-0.225,-0.309l-0.223,-0.31l-0.222,-0.309l-0.22,-0.311l-0.219,-0.311l-0.217,-0.311l-0.215,-0.312l-0.214,-0.312l-0.212,-0.312l-0.211,-0.314l-0.209,-0.313l-0.207,-0.314l-0.206,-0.315l-0.204,-0.315l-0.202,-0.315l-0.201,-0.316l-0.2,-0.316l-0.197,-0.317l-0.196,-0.317l-0.195,-0.318l-0.193,-0.318l-0.191,-0.319l-0.189,-0.319l-0.188,-0.319l-0.186,-0.32l-0.185,-0.32l-0.183,-0.321l-0.181,-0.321l-0.18,-0.322l-0.178,-0.322l-0.176,-0.322l-0.174,-0.323l-0.173,-0.324l-0.172,-0.323l-0.169,-0.324l-0.168,-0.325l-0.166,-0.325l-0.165,-0.325l-0.163,-0.326l-0.161,-0.327l-0.159,-0.326l-0.158,-0.327l-0.156,-0.328l-0.155,-0.328l-0.152,-0.328l-0.151,-0.329l-0.15,-0.329l-0.147,-0.329l-0.146,-0.33l-0.144,-0.33l-0.142,-0.331l-0.141,-0.331l-0.139,-0.331l-0.137,-0.332l-0.136,-0.332l-0.133,-0.333l-0.132,-0.333l-0.131,-0.333l-0.128,-0.334l-0.127,-0.334l-0.125,-0.335l-0.123,-0.335l-0.122,-0.335l-0.119,-0.336l-0.118,-0.336l-0.116,-0.336l-0.115,-0.337l-0.113,-0.337l-0.11,-0.337l-0.11,-0.338l-0.107,-0.338l-0.105,-0.339l-0.104,-0.339l-0.102,-0.339l-0.1,-0.34l-0.099,-0.34l-0.096,-0.34l-0.095,-0.341l-0.093,-0.341l-0.091,-0.341l-0.089,-0.342l-0.088,-0.342l-0.086,-0.342l-0.084,-0.343l-0.082,-0.343l-0.08,-0.343l-0.078,-0.344l-0.077,-0.344l-0.075,-0.344l-0.073,-0.345l-0.071,-0.345l-0.069,-0.345l-0.067,-0.346l-0.066,-0.346l-0.064,-0.346l-0.062,-0.347l-0.06,-0.347l-0.058,-0.347l-0.056,-0.348l-0.054,-0.348l-0.053,-0.348l-0.051,-0.348l-0.048,-0.349l-0.047,-0.349l-0.045,-0.35l-0.043,-0.349l-0.042,-0.35l-0.039,-0.351l-0.038,-0.35l-0.035,-0.351l-0.034,-0.352l-0.032,-0.351l-0.03,-0.352l-0.027,-0.352l-0.027,-0.352l-0.024,-0.353l-0.022,-0.353l-0.02,-0.353l-0.019,-0.353l-0.016,-0.354l-0.015,-0.354l-0.012,-0.354l-0.011,-0.355l-0.009,-0.355l-0.007,-0.355l-0.004,-0.355l-0.003,-0.356l-0.001,-0.356l0.001,-0.356l0.003,-0.355l0.004,-0.356l0.007,-0.355l0.009,-0.355l0.011,-0.354l0.012,-0.355l0.015,-0.354l0.016,-0.353l0.019,-0.354l0.02,-0.353l0.022,-0.353l0.024,-0.353l0.027,-0.352l0.027,-0.352l0.03,-0.352l0.032,-0.351l0.034,-0.351l0.035,-0.351l0.038,-0.351l0.039,-0.35l0.042,-0.35l0.043,-0.35l0.045,-0.349l0.047,-0.349l0.048,-0.349l0.051,-0.349l0.053,-0.348l0.054,-0.348l0.056,-0.347l0.058,-0.348l0.06,-0.347l0.062,-0.346l0.064,-0.347l0.066,-0.346l0.067,-0.345l0.069,-0.346l0.071,-0.345l0.073,-0.344l0.075,-0.345l0.077,-0.344l0.078,-0.344l0.08,-0.343l0.082,-0.343l0.084,-0.343l0.086,-0.342l0.088,-0.342l0.089,-0.342l0.091,-0.341l0.093,-0.341l0.095,-0.341l0.096,-0.34l0.099,-0.34l0.1,-0.34l0.102,-0.339l0.104,-0.339l0.105,-0.338l0.107,-0.339l0.11,-0.337l0.11,-0.338l0.113,-0.337l0.115,-0.337l0.116,-0.336l0.118,-0.336l0.119,-0.336l0.122,-0.335l0.123,-0.335l0.125,-0.334l0.127,-0.334l0.128,-0.334l0.131,-0.334l0.132,-0.333l0.133,-0.332l0.136,-0.332l0.137,-0.332l0.139,-0.332l0.141,-0.331l0.142,-0.33l0.144,-0.331l0.146,-0.33l0.147,-0.329l0.15,-0.329l0.151,-0.329l0.152,-0.328l0.155,-0.328l0.156,-0.327l0.158,-0.328l0.159,-0.326l0.161,-0.326l0.163,-0.326l0.165,-0.326l0.166,-0.325l0.168,-0.324l0.169,-0.324l0.172,-0.324l0.173,-0.324l0.174,-0.322l0.176,-0.323l0.178,-0.322l0.18,-0.322l0.181,-0.321l0.183,-0.32l0.185,-0.321l0.186,-0.32l0.188,-0.319l0.189,-0.319l0.191,-0.319l0.193,-0.318l0.195,-0.317l0.196,-0.318l0.197,-0.316l0.2,-0.317l0.201,-0.316l0.202,-0.315l0.204,-0.315l0.206,-0.315l0.207,-0.314l0.209,-0.313l0.211,-0.313l0.212,-0.313l0.214,-0.312l0.215,-0.312l0.217,-0.311l0.219,-0.311l0.22,-0.31l0.222,-0.31l0.223,-0.31l0.225,-0.308l0.227,-0.309l0.228,-0.308l0.229,-0.307l0.232,-0.307l0.232,-0.307l0.235,-0.306l0.236,-0.305l0.237,-0.305l0.239,-0.305l0.241,-0.304l0.242,-0.303l0.243,-0.303l0.245,-0.303l0.247,-0.302l0.248,-0.302l0.25,-0.301l0.251,-0.3l0.253,-0.3l0.255,-0.3l0.256,-0.299l0.257,-0.298l0.259,-0.298l0.26,-0.298l0.262,-0.297l0.264,-0.296l0.265,-0.296l0.266,-0.295l0.268,-0.295l0.269,-0.295l0.271,-0.293l0.273,-0.294l0.274,-0.292l0.275,-0.293l0.277,-0.291l0.278,-0.291l0.28,-0.291l0.281,-0.29l0.283,-0.29l0.284,-0.289l0.286,-0.288l0.287,-0.288l0.289,-0.287l0.29,-0.287l0.291,-0.286l0.293,-0.286l0.294,-0.285l0.296,-0.285l0.298,-0.284l0.298,-0.283l0.3,-0.283l0.302,-0.283l0.303,-0.281l0.304,-0.282l0.306,-0.28l0.307,-0.28l0.309,-0.28l0.31,-0.279l0.312,-0.278l0.312,-0.278l0.315,-0.277l0.315,-0.277l0.318,-0.276l0.318,-0.275l0.32,-0.275l0.321,-0.274l0.323,-0.274l0.324,-0.273l0.325,-0.272l0.327,-0.272l0.328,-0.272l0.33,-0.27l0.331,-0.271l0.332,-0.269l0.334,-0.269l0.335,-0.268l0.336,-0.268l0.338,-0.267l0.339,-0.267l0.34,-0.265l0.342,-0.266l0.343,-0.264l0.344,-0.264l0.346,-0.264l0.347,-0.263l0.349,-0.262l0.349,-0.261l0.351,-0.261l0.353,-0.261l0.353,-0.259l0.356,-0.259l0.356,-0.259l0.358,-0.258l0.358,-0.257l0.361,-0.256l0.361,-0.256l0.363,-0.255l0.364,-0.255l0.366,-0.254l0.366,-0.253l0.369,-0.253l0.369,-0.252l0.37,-0.251l0.372,-0.251l0.373,-0.25l0.375,-0.249l0.376,-0.249l0.376,-0.248l0.379,-0.248l0.379,-0.246l0.381,-0.247l0.382,-0.245l0.383,-0.245l0.385,-0.244l0.385,-0.243l0.387,-0.243l0.388,-0.242l0.39,-0.242l0.391,-0.24l0.391,-0.24l0.394,-0.24l0.394,-0.239l0.396,-0.238l0.396,-0.237l0.398,-0.237l0.4,-0.235l0.4,-0.236l0.402,-0.234l0.402,-0.234l0.405,-0.233l0.405,-0.233l0.406,-0.232l0.408,-0.231l0.409,-0.23l0.41,-0.23l0.411,-0.229l0.412,-0.228l0.414,-0.228l0.415,-0.227l0.415,-0.226l0.418,-0.225l0.418,-0.225l0.419,-0.224l0.421,-0.223l0.421,-0.223l0.423,-0.221l0.424,-0.222l0.426,-0.22l0.426,-0.22l0.427,-0.219l0.429,-0.218l0.43,-0.217l0.431,-0.217l0.432,-0.216l0.433,-0.215l0.434,-0.215l0.435,-0.213l0.437,-0.213l0.437,-0.213l0.439,-0.211l0.44,-0.211l0.441,-0.21l0.442,-0.209l0.443,-0.209l0.444,-0.208l0.446,-0.207l0.446,-0.206l0.448,-0.205l0.448,-0.205l0.45,-0.204l0.451,-0.203l0.452,-0.203l0.453,-0.202l0.454,-0.2l0.455,-0.201l0.456,-0.199l0.457,-0.199l0.458,-0.197l0.46,-0.197l0.46,-0.197l0.461,-0.195l0.463,-0.195l0.463,-0.194l0.465,-0.193l0.466,-0.192l0.466,-0.192l0.468,-0.191l0.469,-0.189l0.469,-0.19l0.471,-0.188l0.472,-0.188l0.473,-0.186l0.474,-0.186l0.475,-0.185l0.475,-0.185l0.477,-0.183l0.478,-0.183l0.479,-0.182l0.48,-0.181l0.481,-0.18l0.482,-0.18l0.482,-0.179l0.484,-0.177l0.485,-0.177l0.486,-0.177l0.487,-0.175l0.487,-0.175l0.489,-0.173l0.49,-0.173l0.491,-0.172l0.491,-0.172l0.493,-0.17l0.493,-0.169l0.495,-0.169l0.495,-0.168l0.497,-0.167l0.497,-0.166l0.498,-0.166l0.5,-0.164l0.5,-0.164l0.501,-0.163l0.502,-0.162l0.503,-0.161l0.504,-0.16l0.505,-0.159l0.505,-0.159l0.507,-0.158l0.508,-0.156l0.508,-0.156l0.51,-0.156l0.51,-0.154l0.511,-0.153l0.512,-0.153l0.513,-0.151l0.514,-0.151l0.515,-0.15l0.516,-0.149l0.516,-0.148l0.518,-0.147l0.518,-0.147l0.519,-0.145l0.52,-0.145l0.521,-0.143l0.522,-0.143l0.523,-0.142l0.523,-0.141l0.525,-0.14l0.525,-0.139l0.526,-0.139l0.527,-0.137l0.528,-0.137l0.528,-0.135l0.53,-0.135l0.53,-0.134l0.531,-0.133l0.532,-0.132l0.533,-0.131l0.534,-0.13l0.534,-0.129l0.536,-0.129l0.536,-0.127l0.537,-0.127l0.537,-0.125l0.539,-0.125l0.539,-0.124l0.54,-0.123l0.541,-0.122l0.542,-0.12l0.543,-0.121l0.543,-0.119l0.544,-0.118l0.545,-0.117l0.546,-0.116l0.546,-0.116l0.548,-0.114l0.548,-0.114l0.548,-0.112l0.55,-0.112l0.55,-0.11l0.551,-0.11l0.552,-0.109l0.553,-0.108l0.553,-0.106l0.554,-0.106l0.555,-0.105l0.556,-0.104l0.556,-0.103l0.557,-0.102l0.558,-0.101l0.559,-0.1l0.559,-0.1l0.56,-0.098l0.561,-0.097l0.561,-0.096l0.562,-0.095l0.563,-0.095l0.564,-0.093l0.564,-0.092l0.565,-0.092l0.566,-0.09l0.566,-0.089l0.567,-0.089l0.568,-0.087l0.569,-0.086l0.569,-0.086l0.57,-0.084l0.57,-0.084l0.572,-0.082l0.572,-0.082l0.572,-0.08l0.574,-0.079l0.573,-0.079l0.575,-0.077l0.575,-0.077l0.576,-0.075l0.577,-0.074l0.577,-0.074l0.578,-0.072l0.579,-0.071l0.579,-0.071l0.58,-0.069l0.58,-0.068l0.581,-0.068l0.582,-0.066l0.582,-0.065l0.583,-0.064l0.584,-0.063l0.584,-0.062l0.585,-0.062l0.585,-0.06l0.587,-0.059l0.586,-0.058l0.588,-0.057l0.588,-0.055l0.588,-0.055l0.589,-0.054l0.59,-0.053l0.59,-0.052l0.591,-0.05l0.592,-0.05l0.592,-0.049l0.592,-0.047l0.593,-0.046l0.594,-0.046l0.595,-0.044l0.595,-0.044l0.595,-0.042l0.596,-0.041l0.597,-0.04l0.597,-0.039l0.598,-0.038l0.598,-0.037l0.599,-0.036l0.599,-0.034l0.6,-0.034l0.601,-0.033l0.601,-0.031l0.601,-0.03l0.602,-0.03l0.603,-0.028l0.603,-0.027l0.604,-0.026l0.604,-0.025l0.604,-0.024l0.606,-0.023l0.605,-0.022l0.606,-0.02l0.607,-0.02l0.607,-0.018l0.608,-0.017l0.608,-0.017l0.609,-0.015l0.609,-0.014l0.61,-0.013l0.61,-0.011l0.611,-0.011l0.611,-0.009l0.611,-0.009l0.613,-0.007l0.612,-0.006l0.613,-0.005l0.614,-0.004l0.613,-0.003l0.615,-0.002l0.615,0l0.615,0Zm-1.217,7l-0.602,0.002l-0.601,0.003l-0.601,0.003l-0.6,0.005l-0.599,0.006l-0.6,0.008l-0.598,0.008l-0.599,0.009l-0.597,0.011l-0.598,0.011l-0.597,0.013l-0.596,0.013l-0.596,0.015l-0.595,0.016l-0.595,0.017l-0.594,0.018l-0.594,0.019l-0.594,0.02l-0.592,0.021l-0.593,0.023l-0.592,0.023l-0.591,0.025l-0.591,0.025l-0.59,0.027l-0.59,0.027l-0.589,0.029l-0.589,0.03l-0.588,0.031l-0.587,0.031l-0.587,0.033l-0.587,0.034l-0.586,0.035l-0.585,0.036l-0.585,0.038l-0.584,0.038l-0.584,0.039l-0.583,0.04l-0.583,0.042l-0.582,0.042l-0.582,0.043l-0.58,0.045l-0.581,0.045l-0.58,0.047l-0.579,0.047l-0.578,0.049l-0.578,0.049l-0.578,0.051l-0.577,0.051l-0.576,0.053l-0.575,0.054l-0.575,0.054l-0.575,0.056l-0.574,0.057l-0.573,0.057l-0.572,0.059l-0.572,0.06l-0.572,0.061l-0.57,0.061l-0.57,0.063l-0.57,0.064l-0.568,0.065l-0.569,0.065l-0.567,0.067l-0.567,0.068l-0.566,0.069l-0.566,0.07l-0.565,0.07l-0.564,0.072l-0.564,0.073l-0.563,0.073l-0.562,0.075l-0.561,0.076l-0.561,0.076l-0.561,0.078l-0.559,0.079l-0.559,0.079l-0.558,0.081l-0.558,0.081l-0.557,0.083l-0.556,0.083l-0.556,0.084l-0.554,0.086l-0.554,0.086l-0.554,0.088l-0.552,0.088l-0.552,0.089l-0.552,0.09l-0.55,0.091l-0.55,0.092l-0.549,0.093l-0.548,0.094l-0.548,0.095l-0.547,0.096l-0.546,0.097l-0.546,0.098l-0.544,0.098l-0.544,0.1l-0.543,0.101l-0.543,0.101l-0.541,0.103l-0.541,0.103l-0.541,0.104l-0.539,0.105l-0.539,0.107l-0.538,0.107l-0.537,0.108l-0.536,0.109l-0.536,0.109l-0.534,0.111l-0.534,0.112l-0.534,0.112l-0.532,0.114l-0.532,0.114l-0.531,0.115l-0.53,0.117l-0.529,0.117l-0.528,0.118l-0.528,0.119l-0.527,0.119l-0.526,0.121l-0.525,0.122l-0.525,0.122l-0.523,0.124l-0.523,0.124l-0.522,0.125l-0.521,0.126l-0.52,0.127l-0.519,0.128l-0.519,0.128l-0.518,0.13l-0.517,0.13l-0.516,0.132l-0.515,0.132l-0.514,0.133l-0.514,0.134l-0.512,0.135l-0.512,0.135l-0.511,0.137l-0.51,0.137l-0.509,0.139l-0.508,0.139l-0.508,0.14l-0.506,0.14l-0.506,0.142l-0.505,0.143l-0.503,0.143l-0.503,0.144l-0.502,0.145l-0.501,0.146l-0.501,0.147l-0.499,0.147l-0.498,0.149l-0.498,0.149l-0.497,0.15l-0.495,0.151l-0.495,0.152l-0.494,0.152l-0.493,0.154l-0.491,0.154l-0.492,0.155l-0.49,0.156l-0.489,0.156l-0.488,0.158l-0.487,0.158l-0.487,0.159l-0.485,0.16l-0.484,0.161l-0.484,0.162l-0.482,0.162l-0.482,0.163l-0.48,0.164l-0.48,0.165l-0.478,0.165l-0.478,0.167l-0.477,0.167l-0.475,0.168l-0.475,0.169l-0.474,0.169l-0.472,0.17l-0.472,0.172l-0.471,0.171l-0.469,0.173l-0.469,0.173l-0.468,0.175l-0.466,0.175l-0.466,0.175l-0.465,0.177l-0.463,0.177l-0.463,0.178l-0.462,0.179l-0.46,0.18l-0.46,0.18l-0.458,0.181l-0.458,0.182l-0.456,0.183l-0.455,0.183l-0.455,0.184l-0.453,0.185l-0.452,0.186l-0.451,0.186l-0.45,0.187l-0.449,0.188l-0.448,0.188l-0.447,0.19l-0.446,0.19l-0.445,0.191l-0.443,0.191l-0.443,0.192l-0.442,0.193l-0.44,0.194l-0.439,0.194l-0.439,0.196l-0.437,0.195l-0.436,0.197l-0.435,0.197l-0.434,0.198l-0.432,0.199l-0.432,0.199l-0.43,0.201l-0.43,0.2l-0.428,0.202l-0.427,0.202l-0.426,0.203l-0.425,0.204l-0.424,0.204l-0.423,0.205l-0.421,0.206l-0.42,0.206l-0.42,0.207l-0.418,0.208l-0.417,0.208l-0.415,0.21l-0.415,0.209l-0.413,0.211l-0.413,0.211l-0.411,0.212l-0.41,0.212l-0.409,0.213l-0.407,0.214l-0.407,0.215l-0.405,0.215l-0.404,0.216l-0.403,0.216l-0.401,0.217l-0.401,0.218l-0.399,0.218l-0.398,0.22l-0.397,0.219l-0.396,0.221l-0.394,0.221l-0.394,0.221l-0.392,0.222l-0.391,0.223l-0.389,0.224l-0.389,0.224l-0.387,0.225l-0.386,0.225l-0.385,0.226l-0.383,0.227l-0.382,0.227l-0.381,0.228l-0.38,0.229l-0.379,0.229l-0.377,0.23l-0.376,0.23l-0.375,0.231l-0.373,0.231l-0.373,0.233l-0.371,0.232l-0.369,0.234l-0.369,0.234l-0.367,0.234l-0.366,0.235l-0.365,0.236l-0.363,0.236l-0.362,0.237l-0.361,0.238l-0.36,0.238l-0.358,0.238l-0.357,0.24l-0.355,0.239l-0.355,0.241l-0.353,0.241l-0.351,0.241l-0.351,0.242l-0.349,0.243l-0.348,0.243l-0.346,0.244l-0.345,0.244l-0.344,0.245l-0.343,0.245l-0.341,0.246l-0.34,0.246l-0.338,0.247l-0.337,0.248l-0.336,0.248l-0.335,0.249l-0.333,0.249l-0.332,0.249l-0.33,0.251l-0.329,0.25l-0.328,0.252l-0.326,0.251l-0.325,0.253l-0.324,0.252l-0.322,0.254l-0.321,0.254l-0.32,0.254l-0.318,0.255l-0.317,0.255l-0.315,0.256l-0.314,0.256l-0.313,0.257l-0.311,0.258l-0.31,0.257l-0.309,0.259l-0.307,0.259l-0.305,0.259l-0.305,0.26l-0.302,0.26l-0.302,0.261l-0.3,0.261l-0.299,0.261l-0.297,0.263l-0.296,0.262l-0.294,0.263l-0.293,0.264l-0.292,0.264l-0.29,0.264l-0.288,0.265l-0.288,0.266l-0.285,0.265l-0.285,0.267l-0.283,0.266l-0.281,0.268l-0.28,0.267l-0.279,0.268l-0.277,0.269l-0.276,0.268l-0.274,0.27l-0.273,0.27l-0.271,0.27l-0.27,0.27l-0.269,0.271l-0.267,0.272l-0.265,0.272l-0.264,0.272l-0.263,0.273l-0.261,0.273l-0.259,0.273l-0.258,0.274l-0.257,0.274l-0.255,0.275l-0.254,0.275l-0.252,0.276l-0.251,0.276l-0.249,0.276l-0.248,0.277l-0.246,0.277l-0.244,0.277l-0.244,0.278l-0.241,0.278l-0.241,0.279l-0.238,0.278l-0.237,0.28l-0.236,0.279l-0.234,0.28l-0.233,0.281l-0.231,0.28l-0.23,0.282l-0.228,0.281l-0.226,0.282l-0.225,0.282l-0.224,0.283l-0.222,0.282l-0.22,0.284l-0.219,0.283l-0.217,0.284l-0.216,0.284l-0.215,0.285l-0.212,0.285l-0.212,0.285l-0.209,0.285l-0.208,0.286l-0.207,0.286l-0.205,0.287l-0.203,0.287l-0.202,0.287l-0.201,0.287l-0.199,0.288l-0.197,0.288l-0.196,0.288l-0.194,0.289l-0.192,0.289l-0.191,0.289l-0.19,0.29l-0.188,0.29l-0.186,0.29l-0.185,0.29l-0.183,0.291l-0.182,0.291l-0.18,0.292l-0.178,0.291l-0.177,0.292l-0.175,0.292l-0.174,0.293l-0.172,0.292l-0.171,0.293l-0.169,0.294l-0.167,0.293l-0.166,0.294l-0.164,0.294l-0.163,0.295l-0.161,0.294l-0.159,0.295l-0.158,0.295l-0.157,0.296l-0.154,0.295l-0.153,0.296l-0.152,0.296l-0.15,0.297l-0.148,0.297l-0.147,0.297l-0.145,0.297l-0.143,0.297l-0.142,0.298l-0.14,0.298l-0.139,0.298l-0.137,0.298l-0.136,0.299l-0.133,0.299l-0.133,0.299l-0.13,0.299l-0.129,0.3l-0.128,0.3l-0.126,0.3l-0.124,0.3l-0.122,0.301l-0.121,0.301l-0.12,0.301l-0.117,0.301l-0.116,0.301l-0.115,0.302l-0.113,0.302l-0.111,0.302l-0.109,0.303l-0.108,0.302l-0.107,0.303l-0.104,0.303l-0.103,0.304l-0.102,0.303l-0.1,0.304l-0.098,0.304l-0.096,0.304l-0.095,0.304l-0.094,0.305l-0.091,0.305l-0.09,0.305l-0.088,0.305l-0.087,0.306l-0.085,0.306l-0.084,0.306l-0.081,0.306l-0.081,0.306l-0.078,0.307l-0.077,0.307l-0.075,0.307l-0.074,0.307l-0.072,0.308l-0.07,0.307l-0.068,0.308l-0.067,0.309l-0.065,0.308l-0.064,0.309l-0.062,0.309l-0.06,0.309l-0.059,0.309l-0.057,0.31l-0.055,0.31l-0.054,0.309l-0.052,0.311l-0.05,0.31l-0.049,0.311l-0.046,0.311l-0.046,0.311l-0.043,0.311l-0.042,0.312l-0.04,0.312l-0.039,0.312l-0.037,0.312l-0.035,0.313l-0.033,0.313l-0.032,0.313l-0.03,0.313l-0.028,0.314l-0.027,0.314l-0.025,0.314l-0.023,0.314l-0.022,0.314l-0.02,0.315l-0.018,0.315l-0.016,0.315l-0.015,0.316l-0.013,0.316l-0.011,0.316l-0.01,0.316l-0.007,0.316l-0.006,0.317l-0.005,0.317l-0.002,0.318l-0.001,0.317l0.001,0.318l0.002,0.317l0.005,0.317l0.006,0.317l0.007,0.316l0.01,0.317l0.011,0.316l0.013,0.315l0.015,0.316l0.016,0.315l0.018,0.315l0.02,0.315l0.022,0.314l0.023,0.315l0.025,0.314l0.027,0.314l0.028,0.313l0.03,0.313l0.032,0.313l0.033,0.313l0.035,0.313l0.037,0.312l0.039,0.312l0.04,0.312l0.042,0.312l0.043,0.311l0.046,0.311l0.046,0.311l0.049,0.311l0.05,0.311l0.052,0.31l0.054,0.31l0.055,0.31l0.057,0.309l0.059,0.31l0.06,0.309l0.062,0.308l0.064,0.309l0.065,0.309l0.067,0.308l0.068,0.308l0.07,0.308l0.072,0.307l0.074,0.307l0.075,0.308l0.077,0.306l0.078,0.307l0.081,0.307l0.081,0.306l0.084,0.306l0.085,0.305l0.086,0.306l0.089,0.305l0.09,0.305l0.091,0.305l0.094,0.305l0.095,0.304l0.096,0.304l0.098,0.304l0.1,0.304l0.102,0.304l0.103,0.303l0.104,0.303l0.107,0.303l0.108,0.303l0.109,0.302l0.111,0.302l0.113,0.302l0.115,0.302l0.116,0.301l0.117,0.302l0.12,0.301l0.121,0.3l0.122,0.301l0.124,0.3l0.126,0.3l0.128,0.3l0.129,0.3l0.13,0.299l0.133,0.299l0.133,0.299l0.136,0.299l0.137,0.298l0.139,0.299l0.14,0.298l0.142,0.297l0.143,0.298l0.145,0.297l0.147,0.297l0.148,0.296l0.15,0.297l0.152,0.296l0.153,0.296l0.154,0.296l0.157,0.295l0.158,0.295l0.159,0.295l0.161,0.295l0.163,0.294l0.164,0.294l0.166,0.294l0.167,0.293l0.169,0.294l0.171,0.293l0.172,0.292l0.174,0.293l0.175,0.292l0.177,0.292l0.178,0.292l0.18,0.291l0.182,0.291l0.183,0.291l0.185,0.29l0.186,0.291l0.188,0.289l0.19,0.29l0.191,0.289l0.192,0.289l0.194,0.289l0.196,0.288l0.197,0.288l0.199,0.288l0.201,0.287l0.201,0.288l0.204,0.286l0.205,0.287l0.207,0.286l0.208,0.286l0.209,0.285l0.212,0.286l0.212,0.285l0.215,0.284l0.215,0.284l0.218,0.284l0.219,0.284l0.22,0.283l0.222,0.283l0.224,0.282l0.225,0.282l0.226,0.282l0.228,0.282l0.23,0.281l0.231,0.281l0.233,0.28l0.234,0.28l0.236,0.28l0.237,0.279l0.238,0.279l0.241,0.278l0.241,0.278l0.244,0.278l0.244,0.278l0.246,0.277l0.248,0.276l0.249,0.277l0.251,0.276l0.252,0.275l0.254,0.275l0.255,0.275l0.257,0.274l0.258,0.274l0.259,0.274l0.261,0.273l0.263,0.272l0.264,0.273l0.265,0.271l0.267,0.272l0.269,0.271l0.27,0.27l0.271,0.271l0.273,0.27l0.274,0.269l0.276,0.269l0.277,0.268l0.279,0.268l0.28,0.268l0.281,0.267l0.283,0.267l0.285,0.266l0.285,0.266l0.288,0.265l0.288,0.265l0.29,0.264l0.292,0.264l0.293,0.264l0.294,0.263l0.296,0.263l0.297,0.262l0.299,0.261l0.3,0.262l0.302,0.26l0.302,0.261l0.305,0.259l0.305,0.26l0.308,0.259l0.308,0.258l0.31,0.258l0.311,0.257l0.313,0.257l0.314,0.256l0.315,0.256l0.317,0.255l0.318,0.255l0.32,0.255l0.321,0.254l0.322,0.253l0.324,0.253l0.325,0.252l0.326,0.252l0.328,0.251l0.329,0.251l0.33,0.25l0.332,0.249l0.333,0.25l0.335,0.248l0.336,0.248l0.337,0.248l0.338,0.247l0.34,0.246l0.341,0.246l0.343,0.246l0.344,0.244l0.345,0.245l0.346,0.243l0.348,0.244l0.349,0.242l0.351,0.242l0.351,0.242l0.353,0.241l0.355,0.24l0.355,0.24l0.357,0.239l0.359,0.239l0.359,0.238l0.361,0.237l0.362,0.237l0.363,0.236l0.365,0.236l0.366,0.235l0.367,0.235l0.369,0.234l0.369,0.233l0.371,0.233l0.372,0.232l0.374,0.231l0.375,0.231l0.376,0.231l0.377,0.23l0.379,0.229l0.38,0.228l0.381,0.228l0.382,0.227l0.383,0.227l0.385,0.226l0.386,0.226l0.387,0.224l0.389,0.224l0.389,0.224l0.391,0.223l0.392,0.222l0.393,0.222l0.395,0.221l0.396,0.22l0.397,0.22l0.398,0.219l0.399,0.218l0.401,0.218l0.401,0.217l0.403,0.217l0.404,0.215l0.405,0.216l0.407,0.214l0.407,0.214l0.409,0.213l0.41,0.213l0.411,0.211l0.413,0.211l0.413,0.211l0.415,0.21l0.415,0.209l0.417,0.208l0.418,0.208l0.42,0.207l0.42,0.207l0.421,0.205l0.423,0.205l0.424,0.205l0.425,0.203l0.426,0.203l0.427,0.202l0.428,0.202l0.429,0.201l0.431,0.2l0.432,0.199l0.432,0.199l0.434,0.198l0.435,0.197l0.436,0.197l0.437,0.196l0.439,0.195l0.439,0.194l0.441,0.194l0.441,0.193l0.442,0.192l0.444,0.192l0.445,0.191l0.446,0.19l0.447,0.189l0.448,0.188l0.449,0.188l0.45,0.187l0.451,0.187l0.452,0.185l0.453,0.185l0.455,0.184l0.455,0.184l0.456,0.182l0.458,0.182l0.458,0.181l0.46,0.181l0.46,0.179l0.462,0.179l0.463,0.178l0.463,0.177l0.465,0.177l0.466,0.176l0.466,0.175l0.468,0.174l0.468,0.173l0.47,0.173l0.471,0.172l0.472,0.171l0.472,0.17l0.474,0.17l0.475,0.168l0.475,0.168l0.477,0.167l0.478,0.167l0.478,0.165l0.48,0.165l0.48,0.164l0.482,0.163l0.482,0.163l0.484,0.161l0.484,0.161l0.485,0.16l0.487,0.159l0.487,0.158l0.488,0.158l0.489,0.156l0.49,0.156l0.492,0.155l0.491,0.155l0.493,0.153l0.494,0.153l0.495,0.151l0.495,0.151l0.497,0.15l0.498,0.15l0.498,0.148l0.499,0.148l0.5,0.146l0.502,0.146l0.502,0.145l0.503,0.144l0.503,0.144l0.505,0.142l0.506,0.142l0.506,0.141l0.508,0.14l0.508,0.139l0.509,0.138l0.51,0.137l0.511,0.137l0.512,0.136l0.512,0.134l0.514,0.134l0.514,0.133l0.515,0.133l0.516,0.131l0.517,0.13l0.518,0.13l0.518,0.128l0.52,0.128l0.52,0.127l0.521,0.126l0.522,0.125l0.523,0.125l0.523,0.123l0.525,0.123l0.525,0.121l0.526,0.121l0.527,0.12l0.528,0.119l0.528,0.118l0.529,0.117l0.53,0.116l0.531,0.115l0.532,0.115l0.532,0.113l0.534,0.113l0.534,0.111l0.534,0.111l0.536,0.11l0.536,0.109l0.537,0.108l0.538,0.107l0.539,0.106l0.539,0.105l0.541,0.104l0.541,0.104l0.541,0.102l0.543,0.102l0.543,0.1l0.544,0.1l0.544,0.099l0.546,0.097l0.546,0.097l0.547,0.096l0.548,0.095l0.548,0.094l0.549,0.093l0.55,0.092l0.55,0.091l0.552,0.09l0.552,0.089l0.552,0.089l0.554,0.087l0.554,0.086l0.554,0.086l0.556,0.084l0.556,0.084l0.557,0.082l0.558,0.082l0.558,0.08l0.559,0.08l0.559,0.078l0.561,0.078l0.561,0.077l0.561,0.075l0.562,0.075l0.563,0.074l0.564,0.072l0.564,0.072l0.565,0.071l0.566,0.07l0.566,0.068l0.567,0.068l0.567,0.067l0.568,0.066l0.569,0.064l0.57,0.064l0.57,0.063l0.57,0.062l0.572,0.06l0.572,0.06l0.572,0.059l0.573,0.058l0.574,0.056l0.575,0.056l0.575,0.055l0.575,0.053l0.576,0.053l0.577,0.051l0.578,0.051l0.578,0.05l0.578,0.048l0.58,0.048l0.579,0.046l0.581,0.046l0.581,0.044l0.581,0.043l0.582,0.043l0.582,0.041l0.584,0.04l0.584,0.04l0.584,0.038l0.585,0.037l0.585,0.036l0.586,0.035l0.587,0.034l0.587,0.033l0.587,0.032l0.588,0.031l0.589,0.029l0.589,0.029l0.59,0.028l0.59,0.026l0.591,0.026l0.591,0.024l0.592,0.024l0.593,0.022l0.592,0.021l0.594,0.02l0.593,0.019l0.595,0.018l0.595,0.017l0.595,0.016l0.596,0.015l0.596,0.014l0.597,0.012l0.598,0.012l0.597,0.01l0.599,0.009l0.598,0.009l0.6,0.007l0.599,0.006l0.6,0.005l0.601,0.004l0.601,0.003l0.602,0.001l0.602,0.001l0.602,-0.001l0.601,-0.001l0.601,-0.003l0.601,-0.004l0.6,-0.005l0.6,-0.006l0.599,-0.007l0.599,-0.009l0.598,-0.009l0.598,-0.01l0.597,-0.012l0.597,-0.012l0.596,-0.014l0.596,-0.015l0.596,-0.016l0.595,-0.017l0.594,-0.018l0.594,-0.019l0.593,-0.02l0.593,-0.021l0.592,-0.022l0.592,-0.024l0.591,-0.024l0.591,-0.026l0.59,-0.026l0.59,-0.028l0.589,-0.029l0.589,-0.029l0.588,-0.031l0.588,-0.032l0.587,-0.033l0.586,-0.034l0.586,-0.035l0.586,-0.036l0.585,-0.037l0.584,-0.038l0.584,-0.04l0.583,-0.04l0.583,-0.041l0.582,-0.043l0.581,-0.043l0.581,-0.044l0.58,-0.046l0.58,-0.046l0.579,-0.048l0.579,-0.048l0.578,-0.05l0.577,-0.051l0.577,-0.051l0.576,-0.053l0.576,-0.053l0.575,-0.055l0.574,-0.056l0.574,-0.056l0.573,-0.058l0.573,-0.059l0.572,-0.06l0.571,-0.06l0.571,-0.062l0.57,-0.063l0.569,-0.064l0.569,-0.064l0.568,-0.066l0.568,-0.067l0.566,-0.068l0.567,-0.068l0.565,-0.07l0.565,-0.071l0.564,-0.072l0.564,-0.072l0.563,-0.074l0.562,-0.075l0.562,-0.075l0.561,-0.077l0.56,-0.078l0.56,-0.078l0.559,-0.08l0.558,-0.08l0.558,-0.082l0.556,-0.082l0.556,-0.084l0.556,-0.084l0.555,-0.086l0.554,-0.086l0.553,-0.087l0.553,-0.089l0.552,-0.089l0.551,-0.09l0.551,-0.091l0.549,-0.092l0.549,-0.093l0.549,-0.094l0.547,-0.095l0.547,-0.096l0.547,-0.097l0.545,-0.097l0.545,-0.099l0.544,-0.1l0.543,-0.1l0.542,-0.102l0.542,-0.102l0.541,-0.104l0.54,-0.104l0.54,-0.105l0.538,-0.106l0.538,-0.107l0.537,-0.108l0.537,-0.109l0.535,-0.11l0.535,-0.111l0.534,-0.111l0.533,-0.113l0.533,-0.113l0.531,-0.115l0.531,-0.115l0.53,-0.116l0.529,-0.117l0.529,-0.118l0.527,-0.119l0.527,-0.12l0.527,-0.121l0.525,-0.121l0.524,-0.123l0.524,-0.123l0.522,-0.125l0.522,-0.125l0.521,-0.126l0.521,-0.127l0.519,-0.128l0.519,-0.128l0.517,-0.13l0.517,-0.13l0.516,-0.131l0.515,-0.133l0.515,-0.133l0.513,-0.134l0.513,-0.134l0.512,-0.136l0.51,-0.137l0.51,-0.137l0.51,-0.138l0.508,-0.139l0.507,-0.14l0.507,-0.141l0.505,-0.142l0.505,-0.142l0.504,-0.144l0.503,-0.144l0.502,-0.145l0.501,-0.146l0.5,-0.146l0.499,-0.148l0.499,-0.148l0.497,-0.15l0.497,-0.15l0.495,-0.151l0.495,-0.151l0.494,-0.153l0.493,-0.153l0.492,-0.155l0.491,-0.155l0.49,-0.156l0.489,-0.156l0.488,-0.158l0.488,-0.158l0.486,-0.159l0.485,-0.16l0.485,-0.161l0.483,-0.161l0.483,-0.163l0.481,-0.163l0.481,-0.164l0.479,-0.165l0.479,-0.165l0.478,-0.167l0.476,-0.167l0.476,-0.168l0.475,-0.168l0.473,-0.17l0.473,-0.17l0.471,-0.171l0.471,-0.172l0.47,-0.173l0.469,-0.173l0.467,-0.174l0.467,-0.175l0.466,-0.176l0.464,-0.177l0.464,-0.177l0.463,-0.178l0.461,-0.179l0.461,-0.179l0.459,-0.181l0.459,-0.181l0.457,-0.182l0.456,-0.182l0.456,-0.184l0.454,-0.184l0.453,-0.185l0.453,-0.185l0.451,-0.187l0.45,-0.187l0.449,-0.188l0.448,-0.188l0.447,-0.189l0.445,-0.19l0.445,-0.191l0.444,-0.192l0.443,-0.192l0.441,-0.193l0.44,-0.194l0.44,-0.194l0.438,-0.195l0.437,-0.196l0.436,-0.197l0.435,-0.197l0.434,-0.198l0.433,-0.199l0.431,-0.199l0.431,-0.2l0.429,-0.201l0.428,-0.202l0.428,-0.202l0.426,-0.203l0.425,-0.203l0.423,-0.205l0.423,-0.205l0.422,-0.206l0.42,-0.206l0.419,-0.207l0.418,-0.208l0.417,-0.208l0.416,-0.209l0.414,-0.21l0.414,-0.211l0.412,-0.211l0.411,-0.212l0.41,-0.212l0.409,-0.213l0.408,-0.214l0.406,-0.214l0.405,-0.216l0.404,-0.215l0.403,-0.217l0.402,-0.217l0.4,-0.218l0.4,-0.218l0.398,-0.219l0.397,-0.22l0.395,-0.22l0.395,-0.221l0.393,-0.222l0.392,-0.222l0.391,-0.223l0.39,-0.224l0.388,-0.224l0.387,-0.224l0.386,-0.226l0.385,-0.226l0.384,-0.227l0.382,-0.227l0.381,-0.228l0.38,-0.228l0.378,-0.23l0.377,-0.229l0.377,-0.231l0.374,-0.231l0.374,-0.231l0.372,-0.232l0.371,-0.233l0.37,-0.233l0.368,-0.234l0.368,-0.235l0.366,-0.235l0.364,-0.236l0.363,-0.236l0.363,-0.237l0.361,-0.237l0.359,-0.238l0.358,-0.239l0.357,-0.239l0.356,-0.24l0.354,-0.24l0.353,-0.241l0.352,-0.242l0.35,-0.242l0.349,-0.242l0.348,-0.244l0.347,-0.243l0.345,-0.245l0.344,-0.244l0.342,-0.246l0.341,-0.246l0.34,-0.246l0.339,-0.247l0.337,-0.248l0.335,-0.248l0.335,-0.248l0.334,-0.25l0.331,-0.249l0.331,-0.25l0.329,-0.251l0.327,-0.251l0.327,-0.252l0.325,-0.252l0.323,-0.253l0.323,-0.254l0.321,-0.253l0.319,-0.255l0.318,-0.255l0.317,-0.255l0.316,-0.256l0.314,-0.256l0.312,-0.257l0.312,-0.257l0.309,-0.258l0.309,-0.258l0.307,-0.259l0.306,-0.26l0.304,-0.259l0.303,-0.261l0.301,-0.26l0.3,-0.262l0.299,-0.261l0.297,-0.262l0.296,-0.263l0.295,-0.263l0.293,-0.264l0.291,-0.264l0.29,-0.264l0.289,-0.265l0.287,-0.265l0.286,-0.266l0.284,-0.266l0.283,-0.267l0.282,-0.267l0.28,-0.268l0.278,-0.268l0.278,-0.268l0.275,-0.269l0.274,-0.269l0.274,-0.27l0.271,-0.271l0.269,-0.27l0.269,-0.271l0.267,-0.272l0.266,-0.271l0.264,-0.273l0.262,-0.272l0.261,-0.273l0.26,-0.274l0.258,-0.274l0.257,-0.274l0.255,-0.275l0.253,-0.275l0.253,-0.276l0.25,-0.275l0.249,-0.277l0.248,-0.276l0.246,-0.277l0.245,-0.278l0.243,-0.278l0.242,-0.278l0.24,-0.278l0.239,-0.279l0.237,-0.28l0.236,-0.279l0.234,-0.28l0.232,-0.28l0.231,-0.281l0.23,-0.281l0.228,-0.282l0.227,-0.282l0.225,-0.282l0.223,-0.282l0.222,-0.283l0.221,-0.283l0.219,-0.284l0.217,-0.284l0.216,-0.284l0.214,-0.285l0.213,-0.284l0.211,-0.286l0.21,-0.285l0.208,-0.286l0.206,-0.286l0.206,-0.287l0.203,-0.286l0.202,-0.288l0.2,-0.287l0.199,-0.288l0.197,-0.288l0.196,-0.288l0.194,-0.289l0.193,-0.289l0.191,-0.289l0.189,-0.29l0.188,-0.29l0.186,-0.29l0.185,-0.29l0.183,-0.291l0.182,-0.291l0.18,-0.291l0.179,-0.292l0.176,-0.292l0.176,-0.292l0.174,-0.293l0.172,-0.292l0.17,-0.293l0.169,-0.293l0.168,-0.294l0.166,-0.294l0.164,-0.294l0.162,-0.294l0.161,-0.295l0.16,-0.295l0.158,-0.295l0.156,-0.295l0.155,-0.296l0.153,-0.296l0.151,-0.296l0.15,-0.297l0.149,-0.296l0.146,-0.297l0.145,-0.297l0.144,-0.298l0.142,-0.298l0.14,-0.297l0.139,-0.299l0.137,-0.298l0.135,-0.299l0.134,-0.299l0.132,-0.299l0.131,-0.299l0.129,-0.3l0.127,-0.3l0.126,-0.3l0.124,-0.3l0.123,-0.301l0.121,-0.3l0.119,-0.301l0.118,-0.302l0.116,-0.301l0.114,-0.302l0.113,-0.302l0.111,-0.302l0.11,-0.303l0.108,-0.302l0.106,-0.303l0.105,-0.303l0.103,-0.303l0.101,-0.304l0.1,-0.303l0.098,-0.305l0.097,-0.304l0.095,-0.304l0.093,-0.305l0.092,-0.305l0.09,-0.305l0.088,-0.305l0.087,-0.306l0.085,-0.306l0.083,-0.305l0.082,-0.306l0.08,-0.307l0.078,-0.306l0.077,-0.308l0.076,-0.307l0.073,-0.307l0.072,-0.307l0.07,-0.308l0.069,-0.308l0.067,-0.308l0.065,-0.309l0.064,-0.309l0.062,-0.308l0.06,-0.309l0.058,-0.31l0.057,-0.309l0.056,-0.31l0.053,-0.31l0.052,-0.311l0.05,-0.31l0.049,-0.311l0.047,-0.31l0.045,-0.312l0.044,-0.311l0.042,-0.312l0.04,-0.312l0.038,-0.312l0.037,-0.312l0.035,-0.313l0.034,-0.313l0.031,-0.313l0.03,-0.313l0.029,-0.314l0.026,-0.313l0.025,-0.314l0.024,-0.314l0.021,-0.315l0.02,-0.315l0.018,-0.315l0.017,-0.315l0.014,-0.315l0.013,-0.316l0.012,-0.317l0.009,-0.315l0.008,-0.317l0.006,-0.317l0.004,-0.317l0.003,-0.317l0.001,-0.318l-0.001,-0.317l-0.003,-0.318l-0.004,-0.317l-0.006,-0.316l-0.008,-0.317l-0.009,-0.316l-0.012,-0.316l-0.013,-0.316l-0.014,-0.315l-0.017,-0.316l-0.018,-0.315l-0.02,-0.315l-0.021,-0.314l-0.024,-0.314l-0.025,-0.314l-0.026,-0.314l-0.029,-0.314l-0.03,-0.313l-0.031,-0.313l-0.034,-0.313l-0.035,-0.313l-0.037,-0.312l-0.038,-0.312l-0.04,-0.312l-0.042,-0.312l-0.044,-0.311l-0.045,-0.311l-0.047,-0.311l-0.049,-0.311l-0.05,-0.31l-0.052,-0.31l-0.053,-0.311l-0.056,-0.309l-0.057,-0.31l-0.058,-0.309l-0.06,-0.309l-0.062,-0.309l-0.064,-0.309l-0.065,-0.308l-0.067,-0.309l-0.069,-0.308l-0.07,-0.307l-0.072,-0.308l-0.073,-0.307l-0.076,-0.307l-0.076,-0.307l-0.079,-0.307l-0.08,-0.306l-0.082,-0.306l-0.083,-0.306l-0.085,-0.306l-0.087,-0.306l-0.088,-0.305l-0.09,-0.305l-0.092,-0.305l-0.093,-0.305l-0.095,-0.304l-0.097,-0.304l-0.098,-0.304l-0.1,-0.304l-0.101,-0.303l-0.103,-0.304l-0.105,-0.303l-0.106,-0.303l-0.108,-0.302l-0.11,-0.303l-0.111,-0.302l-0.113,-0.302l-0.114,-0.302l-0.116,-0.301l-0.118,-0.301l-0.119,-0.301l-0.121,-0.301l-0.123,-0.301l-0.124,-0.3l-0.126,-0.3l-0.127,-0.3l-0.129,-0.299l-0.131,-0.3l-0.132,-0.299l-0.134,-0.299l-0.135,-0.299l-0.137,-0.298l-0.139,-0.298l-0.14,-0.298l-0.142,-0.298l-0.144,-0.297l-0.145,-0.297l-0.146,-0.297l-0.149,-0.297l-0.15,-0.297l-0.151,-0.296l-0.153,-0.296l-0.155,-0.295l-0.156,-0.296l-0.158,-0.295l-0.16,-0.295l-0.161,-0.295l-0.162,-0.294l-0.164,-0.294l-0.166,-0.293l-0.168,-0.294l-0.169,-0.294l-0.17,-0.292l-0.172,-0.293l-0.174,-0.293l-0.176,-0.292l-0.176,-0.292l-0.179,-0.291l-0.18,-0.292l-0.182,-0.291l-0.183,-0.291l-0.185,-0.29l-0.186,-0.29l-0.188,-0.29l-0.189,-0.289l-0.191,-0.29l-0.193,-0.289l-0.194,-0.289l-0.196,-0.288l-0.197,-0.288l-0.199,-0.288l-0.2,-0.287l-0.202,-0.287l-0.203,-0.287l-0.206,-0.287l-0.206,-0.286l-0.208,-0.286l-0.21,-0.285l-0.211,-0.285l-0.213,-0.285l-0.214,-0.285l-0.216,-0.284l-0.217,-0.284l-0.219,-0.283l-0.221,-0.284l-0.222,-0.282l-0.223,-0.283l-0.225,-0.282l-0.227,-0.282l-0.228,-0.281l-0.23,-0.281l-0.231,-0.281l-0.232,-0.281l-0.234,-0.28l-0.236,-0.279l-0.237,-0.28l-0.239,-0.278l-0.24,-0.279l-0.242,-0.278l-0.243,-0.278l-0.245,-0.277l-0.246,-0.277l-0.248,-0.277l-0.249,-0.276l-0.25,-0.276l-0.253,-0.276l-0.253,-0.275l-0.255,-0.274l-0.257,-0.275l-0.258,-0.274l-0.26,-0.273l-0.261,-0.273l-0.262,-0.273l-0.265,-0.272l-0.265,-0.272l-0.267,-0.272l-0.268,-0.271l-0.27,-0.27l-0.272,-0.27l-0.272,-0.27l-0.275,-0.27l-0.275,-0.268l-0.278,-0.269l-0.278,-0.268l-0.28,-0.267l-0.282,-0.268l-0.283,-0.266l-0.284,-0.267l-0.286,-0.265l-0.287,-0.266l-0.289,-0.265l-0.29,-0.264l-0.291,-0.264l-0.293,-0.264l-0.295,-0.263l-0.296,-0.262l-0.297,-0.262l-0.299,-0.262l-0.3,-0.262l-0.301,-0.26l-0.303,-0.26l-0.304,-0.26l-0.306,-0.259l-0.307,-0.259l-0.309,-0.259l-0.309,-0.258l-0.312,-0.257l-0.312,-0.257l-0.314,-0.256l-0.316,-0.256l-0.317,-0.255l-0.318,-0.255l-0.319,-0.254l-0.321,-0.254l-0.323,-0.254l-0.323,-0.252l-0.325,-0.253l-0.327,-0.251l-0.327,-0.252l-0.329,-0.25l-0.331,-0.251l-0.332,-0.249l-0.333,-0.249l-0.334,-0.249l-0.336,-0.248l-0.337,-0.248l-0.339,-0.247l-0.34,-0.246l-0.341,-0.246l-0.342,-0.245l-0.344,-0.245l-0.345,-0.244l-0.347,-0.244l-0.348,-0.243l-0.349,-0.243l-0.35,-0.242l-0.352,-0.241l-0.353,-0.241l-0.354,-0.241l-0.356,-0.239l-0.357,-0.24l-0.358,-0.238l-0.36,-0.238l-0.36,-0.238l-0.362,-0.237l-0.364,-0.236l-0.364,-0.236l-0.366,-0.235l-0.368,-0.234l-0.368,-0.234l-0.37,-0.234l-0.371,-0.233l-0.372,-0.232l-0.374,-0.231l-0.375,-0.231l-0.375,-0.23l-0.378,-0.23l-0.378,-0.229l-0.38,-0.229l-0.381,-0.228l-0.382,-0.227l-0.384,-0.227l-0.385,-0.226l-0.386,-0.225l-0.387,-0.225l-0.388,-0.224l-0.39,-0.224l-0.391,-0.223l-0.392,-0.222l-0.393,-0.221l-0.395,-0.221l-0.395,-0.221l-0.397,-0.22l-0.398,-0.219l-0.4,-0.218l-0.4,-0.218l-0.402,-0.217l-0.403,-0.216l-0.404,-0.216l-0.405,-0.215l-0.406,-0.215l-0.408,-0.214l-0.409,-0.213l-0.41,-0.212l-0.411,-0.212l-0.412,-0.211l-0.414,-0.211l-0.414,-0.209l-0.416,-0.21l-0.417,-0.208l-0.418,-0.208l-0.419,-0.207l-0.42,-0.206l-0.422,-0.206l-0.423,-0.205l-0.423,-0.204l-0.425,-0.204l-0.426,-0.203l-0.427,-0.202l-0.429,-0.202l-0.429,-0.2l-0.431,-0.201l-0.431,-0.199l-0.433,-0.199l-0.434,-0.198l-0.435,-0.197l-0.436,-0.197l-0.437,-0.195l-0.438,-0.196l-0.439,-0.194l-0.441,-0.194l-0.442,-0.193l-0.442,-0.192l-0.444,-0.191l-0.444,-0.191l-0.446,-0.19l-0.447,-0.19l-0.448,-0.188l-0.449,-0.188l-0.45,-0.187l-0.451,-0.186l-0.453,-0.186l-0.453,-0.185l-0.454,-0.184l-0.456,-0.183l-0.456,-0.183l-0.457,-0.182l-0.459,-0.181l-0.459,-0.18l-0.461,-0.18l-0.462,-0.179l-0.462,-0.178l-0.464,-0.177l-0.464,-0.177l-0.466,-0.175l-0.467,-0.175l-0.467,-0.175l-0.469,-0.173l-0.47,-0.173l-0.47,-0.171l-0.472,-0.172l-0.473,-0.17l-0.474,-0.169l-0.474,-0.169l-0.476,-0.168l-0.477,-0.167l-0.477,-0.167l-0.479,-0.165l-0.479,-0.165l-0.481,-0.164l-0.481,-0.163l-0.483,-0.162l-0.483,-0.162l-0.485,-0.161l-0.485,-0.16l-0.486,-0.159l-0.488,-0.158l-0.488,-0.158l-0.489,-0.156l-0.49,-0.156l-0.491,-0.155l-0.492,-0.154l-0.493,-0.154l-0.494,-0.152l-0.494,-0.152l-0.496,-0.151l-0.497,-0.15l-0.497,-0.149l-0.499,-0.149l-0.499,-0.147l-0.5,-0.147l-0.501,-0.146l-0.502,-0.145l-0.503,-0.144l-0.504,-0.143l-0.505,-0.143l-0.505,-0.142l-0.507,-0.14l-0.507,-0.14l-0.508,-0.139l-0.51,-0.139l-0.51,-0.137l-0.51,-0.137l-0.512,-0.135l-0.513,-0.135l-0.513,-0.134l-0.515,-0.133l-0.515,-0.132l-0.516,-0.132l-0.517,-0.13l-0.517,-0.13l-0.519,-0.128l-0.519,-0.128l-0.521,-0.127l-0.521,-0.126l-0.522,-0.125l-0.522,-0.124l-0.524,-0.124l-0.524,-0.122l-0.526,-0.122l-0.526,-0.121l-0.526,-0.119l-0.528,-0.119l-0.529,-0.118l-0.529,-0.117l-0.53,-0.117l-0.531,-0.115l-0.531,-0.114l-0.533,-0.114l-0.533,-0.112l-0.534,-0.112l-0.535,-0.111l-0.535,-0.109l-0.537,-0.109l-0.537,-0.108l-0.538,-0.107l-0.539,-0.107l-0.539,-0.105l-0.54,-0.104l-0.541,-0.103l-0.542,-0.103l-0.542,-0.101l-0.543,-0.101l-0.544,-0.1l-0.545,-0.098l-0.545,-0.098l-0.547,-0.097l-0.546,-0.096l-0.548,-0.095l-0.549,-0.094l-0.549,-0.093l-0.549,-0.092l-0.551,-0.091l-0.551,-0.09l-0.552,-0.089l-0.553,-0.088l-0.553,-0.088l-0.554,-0.086l-0.555,-0.086l-0.556,-0.084l-0.556,-0.083l-0.557,-0.083l-0.557,-0.081l-0.558,-0.081l-0.559,-0.079l-0.56,-0.079l-0.56,-0.078l-0.561,-0.076l-0.562,-0.076l-0.562,-0.075l-0.563,-0.073l-0.564,-0.073l-0.564,-0.072l-0.565,-0.07l-0.565,-0.07l-0.567,-0.069l-0.566,-0.068l-0.568,-0.067l-0.568,-0.065l-0.569,-0.065l-0.569,-0.064l-0.57,-0.063l-0.571,-0.061l-0.571,-0.061l-0.572,-0.06l-0.573,-0.059l-0.573,-0.057l-0.574,-0.057l-0.574,-0.056l-0.575,-0.054l-0.576,-0.054l-0.576,-0.053l-0.577,-0.051l-0.577,-0.051l-0.578,-0.049l-0.579,-0.049l-0.579,-0.047l-0.58,-0.047l-0.58,-0.045l-0.581,-0.045l-0.581,-0.043l-0.583,-0.042l-0.582,-0.042l-0.583,-0.04l-0.584,-0.039l-0.584,-0.038l-0.585,-0.038l-0.586,-0.036l-0.586,-0.035l-0.586,-0.034l-0.587,-0.033l-0.588,-0.031l-0.588,-0.031l-0.589,-0.03l-0.589,-0.029l-0.59,-0.027l-0.59,-0.027l-0.591,-0.025l-0.591,-0.025l-0.592,-0.023l-0.592,-0.023l-0.593,-0.021l-0.593,-0.02l-0.594,-0.019l-0.594,-0.018l-0.595,-0.017l-0.596,-0.016l-0.596,-0.015l-0.596,-0.013l-0.597,-0.013l-0.597,-0.011l-0.598,-0.011l-0.598,-0.009l-0.599,-0.008l-0.599,-0.008l-0.6,-0.006l-0.6,-0.005l-0.601,-0.003l-0.601,-0.003l-0.601,-0.002l-0.602,0l-0.602,0Z" style="fill:#fff;"/></g><path d="M256,128l-128,128l-128,-128l128,-128l128,128Zm-246.101,0l118.101,118.101l118.101,-118.101l-118.101,-118.101l-118.101,118.101Z"/><g><path d="M49.36,126.772l2.327,25.395l69.222,-6.344l-2.327,-25.394l-69.222,6.343Z" style="fill:#ffd24d;"/><path d="M214.486,24.387l2.327,25.394l-47.107,57.238l-17.306,1.586l-2.234,-24.388l55.079,-52.225l9.241,-7.605" style="fill:#ffd24d;"/><path d="M49.36,126.772l165.126,-102.385l-62.879,75.565l36.197,14.134l-148.613,92.147l79.391,-85.804l-69.222,6.343Z" style="fill:#ffd24d;"/><path d="M39.191,206.233l2.327,25.394l148.613,-92.147l-2.327,-25.394l-148.613,92.147Z" style="fill:#ffd24d;"/><path d="M39.191,206.233l84.195,-57.081l64.418,-35.066l-65.975,41.779l-82.638,50.368Z" style="fill:#f57f00;"/><path d="M39.448,206.333l90.28,-91.694l-80.368,12.133l69.222,-6.343l-79.134,85.904Z" style="fill:#fdffb1;"/><path d="M49.36,126.772l49.756,-1.41l19.466,-4.933l-69.222,6.343" style="fill:#f57f00;"/><path d="M151.607,99.952l6.957,-12.616l55.922,-62.949l-62.879,75.565Z" style="fill:#fdffb1;"/><path d="M151.607,99.952l45.48,-48.173l17.399,-27.392l-62.879,75.565Z" style="fill:#f57f00;"/><path d="M179.634,104.434l43.371,-52.642l-3.347,-37.575l-176.572,109.419l3.081,35.081l31.475,-2.882l-44.604,48.164l3.652,37.731l159.794,-99.009l-2.983,-32.829l-13.867,-5.458Zm-86.944,43.98l-53.499,57.818l2.327,25.395l148.613,-92.143l-2.327,-25.398l-18.085,-7.048l47.091,-57.286l-2.324,-25.365l-165.126,102.385l2.327,25.399l41.003,-3.757Z"/></g><defs><linearGradient id="_Linear1" x1="0" y1="0" x2="1" y2="0" gradientUnits="userSpaceOnUse" gradientTransform="matrix(128,-128,128,128,64,192)"><stop offset="0" style="stop-color:#38aab0;stop-opacity:1"/><stop offset="1" style="stop-color:#0f5f68;stop-opacity:1"/></linearGradient></defs></svg>