<?xml version="1.0" standalone="no"?>
<!DOCTYPE svg PUBLIC "-//W3C//DTD SVG 20010904//EN"
 "http://www.w3.org/TR/2001/REC-SVG-20010904/DTD/svg10.dtd">
<svg version="1.0" xmlns="http://www.w3.org/2000/svg"
 width="512.000000pt" height="512.000000pt" viewBox="0 0 512.000000 512.000000"
 preserveAspectRatio="xMidYMid meet">
<metadata>
Created by potrace 1.11, written by Peter Selinger 2001-2013
</metadata>
<g transform="translate(0.000000,512.000000) scale(0.100000,-0.100000)"
fill="#000000" stroke="none">
<path d="M1275 3840 l-1280 -1280 538 -538 538 -538 -206 -222 -205 -221 36
-373 c20 -205 38 -375 40 -377 2 -2 216 128 475 289 l472 292 438 -438 439
-439 1282 1283 1283 1282 -526 527 -527 528 195 235 195 235 -5 50 c-3 28 -18
195 -34 373 -15 177 -31 322 -34 322 -4 0 -217 -130 -474 -290 -258 -159 -471
-290 -474 -290 -3 0 -202 196 -441 435 -239 239 -437 435 -440 435 -3 0 -581
-576 -1285 -1280z m3041 485 l18 -201 -170 -205 c-619 -751 -764 -929 -764
-937 0 -5 75 -38 167 -73 92 -35 172 -69 178 -75 6 -6 19 -105 29 -220 9 -115
20 -225 23 -245 l5 -35 -339 -211 c-186 -115 -684 -425 -1108 -688 -424 -262
-939 -582 -1145 -710 -206 -128 -376 -233 -377 -232 -1 1 -12 115 -24 253
l-23 250 324 350 c396 426 641 690 698 755 43 48 43 49 18 49 -15 0 -196 -16
-403 -35 -207 -20 -380 -32 -383 -28 -7 8 -53 494 -47 498 1 1 576 358 1277
792 701 435 1442 894 1645 1021 l370 230 7 -52 c3 -28 14 -141 24 -251z m-561
-2335 c176 -30 473 -94 484 -105 3 -3 -19 -30 -49 -60 l-55 -54 -105 24 c-142
33 -365 71 -538 93 l-142 18 92 57 c51 31 102 57 113 57 11 0 101 -14 200 -30z
m-2314 -107 l-81 -88 -143 -37 c-78 -20 -151 -37 -162 -37 -29 -1 -125 97
-107 108 26 16 510 137 560 140 8 1 -23 -38 -67 -86z"/>
<path d="M4199 4518 c-823 -989 -1040 -1250 -1025 -1238 10 8 185 191 389 408
l372 394 123 191 c148 232 183 287 179 287 -2 0 -19 -19 -38 -42z"/>
<path d="M3045 2448 l-570 -311 -723 -489 c-397 -269 -722 -492 -722 -495 0
-3 12 3 27 13 16 10 111 68 213 129 463 280 1242 758 1515 931 165 105 417
264 560 354 243 152 286 181 275 180 -3 -1 -261 -141 -575 -312z"/>
<path d="M1740 2650 c-468 -45 -487 -48 -355 -48 77 -1 246 3 375 7 224 8 242
10 380 46 80 20 147 38 149 41 7 7 -29 4 -549 -46z"/>
<path d="M1163 2593 c15 -2 39 -2 55 0 15 2 2 4 -28 4 -30 0 -43 -2 -27 -4z"/>
</g>
</svg>
